<svg xmlns="http://www.w3.org/2000/svg" width="144.051" height="130.58" viewBox="0 0 144.051 130.58"><defs><style>.a{opacity:0.8;}.b{fill:#fe91ca;}.c{opacity:0.3;}.d,.e,.f{fill:none;stroke:#fe91ca;}.d,.e{stroke-miterlimit:10;}.e{stroke-width:0.756px;}.f{stroke-linecap:square;stroke-width:2.016px;}</style></defs><g transform="translate(-224.637 -381.466)"><g class="a"><circle class="b" cx="2.237" cy="2.237" r="2.237" transform="translate(280.631 381.466)"/><circle class="b" cx="2.237" cy="2.237" r="2.237" transform="translate(334.917 492.655)"/><circle class="b" cx="1.582" cy="1.582" r="1.582" transform="translate(360.278 423.542)"/><circle class="b" cx="1.119" cy="1.119" r="1.119" transform="translate(234.243 481.291)"/><circle class="b" cx="1.119" cy="1.119" r="1.119" transform="translate(252.13 405.428)"/></g><g class="c"><line class="d" x2="8.081" transform="translate(355.262 504.022)"/><line class="d" y2="8.081" transform="translate(359.303 499.981)"/><line class="d" x2="8.081" transform="translate(228.249 417.239)"/><line class="d" y2="8.081" transform="translate(232.289 413.199)"/><line class="d" y1="3.63" x2="3.63" transform="translate(334.917 384.126)"/><line class="d" x2="3.63" y2="3.63" transform="translate(334.917 384.126)"/><line class="d" y1="3.63" x2="3.63" transform="translate(287.193 508.062)"/><line class="d" x2="3.63" y2="3.63" transform="translate(287.193 508.062)"/><line class="d" y1="5.714" x2="5.714" transform="translate(224.991 462.767)"/><line class="d" x2="5.714" y2="5.714" transform="translate(224.991 462.767)"/><line class="e" y1="4.319" x2="4.319" transform="translate(264.755 468.069)"/><line class="e" x2="4.319" y2="4.319" transform="translate(264.755 468.069)"/><circle class="d" cx="3.164" cy="3.164" r="3.164" transform="translate(361.86 459.48)"/><circle class="d" cx="1.582" cy="1.582" r="1.582" transform="translate(226.667 437.641)"/><circle class="d" cx="3.084" cy="3.084" r="3.084" transform="translate(254.367 494.524)"/><line class="d" y1="2.237" x2="2.237" transform="translate(347.098 405.139)"/><line class="d" x2="2.237" y2="2.237" transform="translate(347.098 405.139)"/></g><path class="f" d="M256.034,438.172h9.7m30.854-40.555v9.7m30.854,30.854h9.7M267.75,409.333l3.154,3.154m54.525-3.154-3.155,3.154"/><line class="f" x2="20.728" transform="translate(286.225 460.703)"/><path class="f" d="M283.071,456.2a22.531,22.531,0,1,1,27.037,0c-3.441,3.406-4.576,8.214-4.576,12.988l.049,17.365-8.991,8.992L287.6,486.55l.051-17.387c0-4.92-1.142-9.565-4.578-12.966"/><line class="f" x2="17.593" transform="translate(287.714 485.476)"/></g></svg>