<?xml version="1.0" encoding="utf-8"?>
<!-- Generator: Adobe Illustrator 26.0.2, SVG Export Plug-In . SVG Version: 6.00 Build 0)  -->
<svg version="1.1" id="Layer_1" xmlns="http://www.w3.org/2000/svg" xmlns:xlink="http://www.w3.org/1999/xlink" x="0px" y="0px"
	 viewBox="0 0 144.1 130.6" style="enable-background:new 0 0 144.1 130.6;" xml:space="preserve">
<style type="text/css">
	.st0{fill:#A2FF00;}
	.st1{opacity:0.3;}
</style>
<g transform="translate(-642.222 -318.887)">
	<g transform="translate(642.722 318.887)">
		<g transform="translate(4.746)">
			<g>
				<ellipse class="st0" cx="80.6" cy="2.2" rx="2.2" ry="2.2"/>
			</g>
			<g>
				<ellipse class="st0" cx="26.3" cy="124.4" rx="2.2" ry="2.2"/>
			</g>
			<g>
				<ellipse class="st0" cx="1.6" cy="43.7" rx="1.6" ry="1.6"/>
			</g>
			<g>
				<ellipse class="st0" cx="128.1" cy="100.9" rx="1.1" ry="1.1"/>
			</g>
			<g>
				<ellipse class="st0" cx="104.2" cy="8.1" rx="1.1" ry="1.1"/>
			</g>
			<g>
				<ellipse class="st0" cx="39.3" cy="10.1" rx="1.1" ry="1.1"/>
			</g>
		</g>
		<g transform="translate(0 2.66)" class="st1">
			<g transform="translate(4.845 115.856)">
				<g>
					<rect x="0" y="3.5" class="st0" width="8.1" height="1"/>
				</g>
				<g>
					<rect x="3.5" y="0" class="st0" width="1" height="8.1"/>
				</g>
			</g>
			<g transform="translate(131.859 29.073)">
				<g>
					<rect x="0" y="3.5" class="st0" width="8.1" height="1"/>
				</g>
				<g>
					<rect x="3.5" y="0" class="st0" width="1" height="8.1"/>
				</g>
			</g>
			<g transform="translate(29.642)">
				<g>
					<rect x="1.3" y="-0.8" transform="matrix(0.7071 -0.7071 0.7071 0.7071 -0.7053 1.7557)" class="st0" width="1" height="5.1"/>
				</g>
				<g>
					<rect x="-0.8" y="1.4" transform="matrix(0.7071 -0.7071 0.7071 0.7071 -0.8139 1.8179)" class="st0" width="5.1" height="1"/>
				</g>
			</g>
			<g transform="translate(77.366 123.937)">
				<g>
					<rect x="1.3" y="-0.8" transform="matrix(0.7071 -0.7071 0.7071 0.7071 -0.7054 1.7559)" class="st0" width="1" height="5.1"/>
				</g>
				<g>
					<rect x="-0.8" y="1.4" transform="matrix(0.7071 -0.7071 0.7071 0.7071 -0.814 1.8181)" class="st0" width="5.1" height="1"/>
				</g>
			</g>
			<g transform="translate(137.483 67.303)">
				<g>
					<rect x="2.4" y="-1.2" transform="matrix(0.7071 -0.7071 0.7071 0.7071 -1.147 2.8898)" class="st0" width="1" height="8.1"/>
				</g>
				<g>
					<rect x="-1.2" y="2.4" transform="matrix(0.7071 -0.7071 0.7071 0.7071 -1.2263 2.8812)" class="st0" width="8.1" height="1"/>
				</g>
			</g>
			<g>
				<path class="st0" d="M3.2,82.2c-2,0-3.7-1.6-3.7-3.7s1.6-3.7,3.7-3.7s3.7,1.6,3.7,3.7S5.2,82.2,3.2,82.2z M3.2,75.9
					c-1.5,0-2.7,1.2-2.7,2.7s1.2,2.7,2.7,2.7s2.7-1.2,2.7-2.7S4.6,75.9,3.2,75.9z"/>
			</g>
			<g>
				<path class="st0" d="M122.9,57.2c-1.1,0-2.1-0.9-2.1-2.1s0.9-2.1,2.1-2.1s2.1,0.9,2.1,2.1S124.1,57.2,122.9,57.2z M122.9,54
					c-0.6,0-1.1,0.5-1.1,1.1s0.5,1.1,1.1,1.1s1.1-0.5,1.1-1.1S123.5,54,122.9,54z"/>
			</g>
			<g>
				<path class="st0" d="M110.7,117.1c-2,0-3.6-1.6-3.6-3.6s1.6-3.6,3.6-3.6s3.6,1.6,3.6,3.6S112.7,117.1,110.7,117.1z M110.7,110.9
					c-1.4,0-2.6,1.2-2.6,2.6s1.2,2.6,2.6,2.6s2.6-1.2,2.6-2.6S112.2,110.9,110.7,110.9z"/>
			</g>
			<g transform="translate(22.821 26.683)">
				<g>
					<polygon class="st0" points="0.3,0.3 1.9,1.9 1.9,1.9 					"/>
				</g>
				<g>
					<path class="st0" d="M1.9,0.3L0.3,1.9L1.9,0.3z"/>
				</g>
			</g>
		</g>
	</g>
	<g transform="translate(51.723 -8.427)">
		<g>
			<path class="st0" d="M645.4,439.7"/>
		</g>
	</g>
</g>
<g>
	<rect x="81.4" y="19.1" class="st0" width="2.4" height="7.6"/>
</g>
<g>
	<polygon class="st0" points="90.3,26.1 95.5,20.9 97.2,22.6 91.9,27.9 	"/>
</g>
<g>
	<polygon class="st0" points="68,22.7 69.6,21 74.9,26.2 73.2,27.9 	"/>
</g>
<g>
	<path class="st0" d="M81.2,30c0.5,0.3,0.9,0.7,1.4,1c1.1,0.8,2.2,1.6,3.4,2.3c0.5,0.3,1,0.6,1.5,0.9c4.1,2.4,4.8,7.4,2.4,11.2
		c-0.3,0.5-0.2,0.8-0.1,1.3c0.3,1.1,1.2,1.5,2,2.1c1.9,1.2,3.8,2.4,5.5,3.8c5.4,4.5,4.4,12.5-1.9,15.7c-0.1,0.1-0.3,0.1-0.5,0.2
		c0.7,2.2,1.4,4.4,2.1,6.6c0.7,2.1,1.3,4.2,2,6.4c0.3,1-0.1,1.7-1,1.7c-0.7,0-1-0.5-1.2-1.1c-1.1-3.6-2.2-7.1-3.4-10.7
		c-0.9-2.9-1.8-5.7-2.7-8.7c-1.1,0.3-2.2,0.6-3.3,0.9c0.7,2.9,1.3,5.7,2,8.5c1.6,6.6,3.1,13.2,4.7,19.8c1.1,4.7,3.3,8.9,5.7,13.1
		c0.1,0.2,0.5,0.3,0.7,0.5c0.2-0.3,0.5-0.6,0.5-0.9c0.1-5.6-0.6-11.1-2.3-16.5c-0.1-0.2-0.1-0.4-0.2-0.7c-0.2-0.7,0.2-1.2,0.8-1.4
		c0.6-0.2,1.2,0.1,1.4,0.8c0.3,0.9,0.5,1.8,0.8,2.7c1.4,5,1.9,10.1,1.8,15.3c0,1.4-0.8,2.5-2.1,2.9c-1.3,0.4-2.6-0.1-3.3-1.4
		c-1.3-2.5-2.6-5.1-3.9-7.6c-0.1-0.2-0.2-0.3-0.2-0.4c-0.8,1.1-1.5,2.2-2.4,3.2c-2,2.2-4.7,3.3-7.5,4c-2.1,0.5-4.3,0.8-6.5,1.2
		c-0.8,0.1-1.4-0.3-1.4-1c-0.1-0.6,0.4-1.2,1.1-1.2c2.8-0.3,5.6-0.9,8.3-1.8c3.5-1.2,5.9-3.6,7-7.2c0.1-0.3,0.1-0.8,0-1.1
		c-0.7-2.9-1.5-5.8-2.2-8.7c-0.1-0.5-0.4-1.1-0.8-1.4c-1-0.8-2.2-1.4-3.3-2.1c-1.3-0.9-2.8-1.6-3.9-2.7c-2.4-2.3-2.4-5.3,0-7.6
		c1.1-1,2.4-1.7,3.6-2.6c0.3-0.2,0.6-0.4,0.4-0.8c-0.3-1.3-0.6-2.7-1-4c-0.2,0-0.4,0-0.6-0.1c-0.5-0.2-1.2-0.4-1.6-0.8
		c-1-0.9-1.4-3.7-0.8-5c0.1-0.2,0.1-0.5,0-0.7c-0.6-2.4-1.3-4.7-1.9-7.1c-0.1-0.3-0.2-0.6-0.2-0.8c0.2-1-0.5-1.5-1.2-1.9
		c-0.3-0.2-0.7-0.4-0.9-0.7c-0.6-0.7-1.5-0.8-2.4-0.9c-8.5-0.3-16.3,2-23,7.3c-6,4.8-9.7,11-10.6,18.7c-0.9,7.9,1.5,14.8,6.6,20.8
		c5.6,6.5,12.9,10,21.4,11.1c0.4,0.1,0.9,0.1,1.3,0.1c1,0.1,1.5,0.5,1.5,1.3c0,0.8-0.6,1.1-1.6,1c-3.7-0.3-7.3-1.1-10.7-2.4
		c-7.5-3-13.6-7.8-17.4-15.1c-5.5-10.6-4.8-21,2-30.8c5.5-7.9,13.3-12.2,22.7-13.8c2.2-0.4,4.5-0.3,6.7-0.5c0.3,0,0.5,0,0.7,0
		c-0.1-1.2-0.4-2.4-0.4-3.6c0-1.4,0.7-2.7,1.3-3.9c0.8-1.7,1.6-3.4,2.4-5.2c0.3-0.7,0.9-1.1,1.5-1.5C80.5,30,80.9,30,81.2,30z
		 M80.7,32.6c-0.2,0.5-0.4,1.2-0.7,1.8c-0.7,1.4-1.5,2.8-2.2,4.2c-0.4,0.9-0.7,1.9-0.6,2.8c0.2,2.6,1.9,4.1,4.1,5.1
		c0.2,0.1,0.5,0.1,0.7,0c1.6-0.4,3.3-0.9,4.9-1.3c0.2-0.1,0.4-0.2,0.6-0.3c2-2.8,2.3-6.8-1.4-8.9c-0.3-0.2-0.6-0.4-0.9-0.6
		C83.8,34.5,82.3,33.6,80.7,32.6z M91.2,50.9c0.4,1.4,0.7,2.5,1,3.7c0.1,0.5,0.4,0.9,0.8,1.2c0.4,0.3,0.7,0.8,0.9,1.3
		c0.3,0.6,0.4,1.3,0.5,1.9c0.3,1.2-0.1,2-1,2.8c-0.1,0.1-0.3,0.4-0.3,0.5c0.4,1.3,0.8,2.6,1.2,3.9c0.3-0.2,0.6-0.3,0.8-0.4
		c4.1-2.5,4.6-8.2,1-11.3c-1.1-0.9-2.2-1.7-3.4-2.6C92.3,51.5,91.8,51.3,91.2,50.9z M90.1,55.6c-0.7-2.6-1.4-5.2-2.1-7.7
		c-0.1-0.5-0.5-0.4-0.8-0.3c-1.4,0.4-2.7,0.8-4.1,1.1c-0.6,0.1-0.7,0.4-0.5,1c0.4,1.5,0.8,3.1,1.3,4.6c0.3,0.9,0.5,1.9,0.8,2.9
		C86.4,56.6,88.2,56.2,90.1,55.6z M89.2,81c-0.8-3.5-1.6-6.8-2.3-10.1c-0.8,0.5-1.6,0.9-2.2,1.4c-2.6,2-2.6,4.1,0,6.1
		C86,79.4,87.5,80.1,89.2,81z M91.7,57.6c-2.6,0.7-5,1.4-7.6,2.1c0.2,0.8,0.4,1.5,0.6,2.3c2.6-0.7,5-1.4,7.6-2.1
		C92.1,59,91.9,58.3,91.7,57.6z"/>
	<path class="st0" d="M59.4,76.6c0,3.8-3.1,7-7,6.9c-3.8,0-6.9-3.2-6.9-7c0-3.8,3.1-6.9,6.9-6.9C56.3,69.6,59.4,72.7,59.4,76.6z
		 M57.1,76.6c0-2.6-2.1-4.6-4.6-4.7c-2.6,0-4.7,2.1-4.7,4.7c0,2.5,2.1,4.6,4.6,4.7C55,81.3,57.1,79.1,57.1,76.6z"/>
	<path class="st0" d="M58,67.6c-3.4,0-6.1-2.7-6.1-6.1c0-3.4,2.7-6.1,6.1-6.1c3.3,0,6,2.8,6,6.1C64.1,64.9,61.3,67.6,58,67.6z
		 M58,65.4c2.1,0,3.8-1.7,3.8-3.8c0-2.1-1.7-3.8-3.8-3.8c-2.1,0-3.8,1.7-3.8,3.8C54.2,63.7,55.8,65.4,58,65.4z"/>
	<path class="st0" d="M60.4,96.5c-3.3,0-5.9-2.7-5.9-6c0-3.3,2.7-5.9,6-5.9c3.3,0,5.9,2.7,5.9,6C66.3,93.9,63.7,96.5,60.4,96.5z
		 M64.1,90.6c0-2-1.6-3.7-3.6-3.7c-2,0-3.7,1.6-3.7,3.6c0,2,1.6,3.7,3.6,3.7C62.4,94.3,64.1,92.7,64.1,90.6z"/>
	<path class="st0" d="M71.4,61.3c-3.3,0-5.9-2.6-6-5.9c0-3.3,2.7-6,6-6c3.3,0,5.9,2.7,5.9,5.9C77.3,58.6,74.7,61.3,71.4,61.3z
		 M71.4,59c2,0,3.6-1.7,3.6-3.7c0-2-1.7-3.6-3.7-3.6c-2,0-3.7,1.7-3.6,3.7C67.8,57.4,69.4,59,71.4,59z"/>
	<path class="st0" d="M74.5,89.2c3.3,0,5.9,2.7,5.9,6c0,3.3-2.7,5.9-6,5.9c-3.2,0-5.9-2.8-5.9-6C68.5,91.7,71.2,89.1,74.5,89.2z
		 M74.5,91.4c-2,0-3.7,1.6-3.7,3.6c0,2,1.6,3.7,3.6,3.7c2,0,3.7-1.6,3.7-3.6C78.1,93.1,76.5,91.4,74.5,91.4z"/>
</g>
<g transform="translate(131.859 29.073)">
	<g>
		<rect x="-105.1" y="17.9" class="st0" width="8.1" height="1"/>
	</g>
	<g>
		<rect x="-101.6" y="14.4" class="st0" width="1" height="8.1"/>
	</g>
</g>
<g transform="translate(29.642)">
	<g>
		<rect x="-0.4" y="94.7" transform="matrix(0.7071 -0.7071 0.7071 0.7071 -68.7276 28.5676)" class="st0" width="1" height="5.1"/>
	</g>
	<g>
		<rect x="-2.4" y="96.9" transform="matrix(0.7071 -0.7071 0.7071 0.7071 -68.8362 28.6298)" class="st0" width="5.1" height="1"/>
	</g>
</g>
</svg>
