<svg xmlns="http://www.w3.org/2000/svg" width="230.281" height="216.622" viewBox="0 0 230.281 216.622"><defs><style>.a{opacity:0.8;}.b{fill:#efe350;}.c{opacity:0.3;}.d,.e,.f,.g,.h{fill:none;stroke:#efe350;}.d{stroke-miterlimit:10;}.e,.f,.g,.h{stroke-linecap:square;stroke-width:2.2px;}.f,.h{stroke-linejoin:round;}.f,.g{isolation:isolate;}</style></defs><g transform="translate(-719.421 -296.463)"><g transform="translate(719.775 296.463)"><g class="a" transform="translate(15.366)"><circle class="b" cx="3.716" cy="3.716" r="3.716" transform="translate(77.037)"/><circle class="b" cx="3.716" cy="3.716" r="3.716" transform="translate(159.281 177.222)"/><circle class="b" cx="2.627" cy="2.627" r="2.627" transform="translate(209.308 69.877)"/><circle class="b" cx="1.858" cy="1.858" r="1.858" transform="translate(0 165.781)"/><circle class="b" cx="1.858" cy="1.858" r="1.858" transform="translate(29.704 39.794)"/><circle class="b" cx="1.858" cy="1.858" r="1.858" transform="translate(147.422 14.971)"/></g><g class="c" transform="translate(0 4.417)"><g transform="translate(5.41 48.282)"><line class="d" x2="13.42" transform="translate(0 6.71)"/><line class="d" y2="13.42" transform="translate(6.71)"/></g><g transform="translate(182.555)"><line class="d" y1="6.028" x2="6.028"/><line class="d" x2="6.028" y2="6.028"/></g><g transform="translate(103.299 205.823)"><line class="d" y1="6.028" x2="6.028"/><line class="d" x2="6.028" y2="6.028"/></g><g transform="translate(79.675 25.228)"><line class="d" y1="6.028" x2="6.028"/><line class="d" x2="6.028" y2="6.028"/></g><g transform="translate(0 111.771)"><line class="d" y1="9.489" x2="9.489"/><line class="d" x2="9.489" y2="9.489"/></g><circle class="d" cx="5.255" cy="5.255" r="5.255" transform="translate(198.052 130.397)"/><circle class="d" cx="2.627" cy="2.627" r="2.627" transform="translate(31.028 88.873)"/><circle class="d" cx="5.122" cy="5.122" r="5.122" transform="translate(48.785 183.34)"/><g transform="translate(196.195 44.313)"><line class="d" y1="3.716" x2="3.716"/><line class="d" x2="3.716" y2="3.716"/></g></g></g><g transform="translate(125.317 -188.237) rotate(14)"><g transform="translate(779.937 343.53)"><rect class="e" width="14.486" height="14.486" transform="translate(45.573)"/><rect class="e" width="14.486" height="14.486" transform="translate(45.573 105.997)"/><path class="f" d="M835.685,354.161a51.775,51.775,0,0,0-18.2-6.055" transform="translate(-757.242 -340.364)"/><path class="g" d="M817.482,444.145a53.005,53.005,0,0,0,39.25-77.924" transform="translate(-757.233 -331.447)"/><path class="f" d="M798.648,415.91a51.18,51.18,0,0,0,13.38,3.82" transform="translate(-766.666 -307.06)"/><path class="g" d="M822.537,348.143a53.107,53.107,0,0,0-41.018,73.525" transform="translate(-777.195 -340.401)"/></g><path class="e" d="M867.478,341.6h-5.307l-60.09,60.09-6.153,11.946,7.6,7.6,7.6,7.6,11.946-6.153,5.412-5.412" transform="translate(11.937)"/><path class="e" d="M822.623,410.038,870.065,362.6V341.6H863.2" transform="translate(25.038)"/><line class="h" x1="20.995" y1="20.995" transform="translate(814.056 401.65)"/><path class="e" d="M808.119,436.691l-36.511,4.687,4.689-36.511,31.566-14.947,15.2,15.2Z" transform="translate(0 23.715)"/><line class="h" x1="20.995" y1="20.995" transform="translate(867.48 348.227)"/><line class="h" x1="18.816" y2="18.816" transform="translate(859.161 358.725)"/><line class="h" x1="8.471" y2="8.471" transform="translate(780.08 448.151)"/><path class="e" d="M824.562,374.319l1.172-7.438,7.439-1.172L832,373.148Z" transform="translate(25.99 11.833)"/><path class="e" d="M782.973,417.507l1.172-12.3,12.3-1.172-1.172,12.3Z" transform="translate(5.578 30.644)"/></g></g></svg>