<svg xmlns="http://www.w3.org/2000/svg" width="144.051" height="130.58" viewBox="0 0 144.051 130.58"><defs><style>.a{opacity:0.8;}.b{fill:#eb750f;}.c{opacity:0.3;}.d,.e,.f,.g{fill:none;stroke:#eb750f;}.d,.f{stroke-miterlimit:10;}.e,.f,.g{stroke-linecap:square;}.e,.g{stroke-width:2.2px;}.f{stroke-width:4px;}.g{stroke-linejoin:round;}</style></defs><g transform="translate(-642.222 -318.887)"><g transform="translate(642.722 318.887)"><g class="a" transform="translate(4.746)"><ellipse class="b" cx="2.237" cy="2.237" rx="2.237" ry="2.237" transform="translate(78.336)"/><ellipse class="b" cx="2.237" cy="2.237" rx="2.237" ry="2.237" transform="translate(24.051 122.189)"/><ellipse class="b" cx="1.582" cy="1.582" rx="1.582" ry="1.582" transform="translate(0 42.076)"/><ellipse class="b" cx="1.119" cy="1.119" rx="1.119" ry="1.119" transform="translate(126.961 99.825)"/><ellipse class="b" cx="1.119" cy="1.119" rx="1.119" ry="1.119" transform="translate(103.075 6.962)"/><ellipse class="b" cx="1.119" cy="1.119" rx="1.119" ry="1.119" transform="translate(38.191 9.015)"/></g><g class="c" transform="translate(0 2.66)"><g transform="translate(4.845 115.856)"><line class="d" x1="8.081" transform="translate(0 4.04)"/><line class="d" y2="8.081" transform="translate(4.04)"/></g><g transform="translate(131.859 29.073)"><line class="d" x1="8.081" transform="translate(0 4.04)"/><line class="d" y2="8.081" transform="translate(4.04)"/></g><g transform="translate(29.642)"><line class="d" x1="3.63" y1="3.63" transform="translate(0)"/><line class="d" x1="3.63" y2="3.63" transform="translate(0)"/></g><g transform="translate(77.366 123.937)"><line class="d" x1="3.63" y1="3.63" transform="translate(0)"/><line class="d" x1="3.63" y2="3.63" transform="translate(0)"/></g><g transform="translate(109.295 84.09)"><line class="d" x1="3.63" y1="3.63" transform="translate(0)"/><line class="d" x1="3.63" y2="3.63" transform="translate(0)"/></g><g transform="translate(137.483 67.303)"><line class="d" x1="5.714" y1="5.714" transform="translate(0)"/><line class="d" x1="5.714" y2="5.714" transform="translate(0)"/></g><ellipse class="d" cx="3.164" cy="3.164" rx="3.164" ry="3.164" transform="translate(0 75.355)"/><ellipse class="d" cx="1.582" cy="1.582" rx="1.582" ry="1.582" transform="translate(121.35 53.515)"/><ellipse class="d" cx="3.084" cy="3.084" rx="3.084" ry="3.084" transform="translate(107.653 110.398)"/><g transform="translate(22.821 26.683)"><line class="d" x1="2.237" y1="2.237" transform="translate(0)"/><line class="d" x1="2.237" y2="2.237" transform="translate(0)"/></g></g></g><g transform="translate(51.723 -8.427)"><path class="e" d="M628.99,367.335a4.958,4.958,0,0,1,4.958-4.958h0a4.958,4.958,0,0,1,4.958,4.958V441.4" transform="translate(-1.177 -1.773)"/><path class="f" d="M648.488,450.025" transform="translate(-3.09 -10.374)"/><path class="e" d="M712.488,362.377a4.958,4.958,0,0,1,4.958,4.958v73.639" transform="translate(-9.371 -1.773)"/><path class="e" d="M627.81,345.716v64.558a5.455,5.455,0,0,1-5.4,5.5h0a5.455,5.455,0,0,1-5.4-5.5V345.716" transform="translate(0 -1.402)"/><path class="e" d="M634.488,362.377h12.626a4.958,4.958,0,0,1,4.958,4.958V441.4" transform="translate(-1.716 -1.773)"/><path class="e" d="M698.488,362.377h12.626a4.959,4.959,0,0,1,4.958,4.96v74.086" transform="translate(-7.997 -1.773)"/><path class="e" d="M648.488,362.377H696.01a4.958,4.958,0,0,1,4.958,4.958V441.4" transform="translate(-3.09 -1.773)"/><g transform="translate(650.356 382.256)"><line class="g" x1="47.522" transform="translate(0 37.744)"/><line class="g" x1="47.522"/></g><line class="g" y2="16.29" transform="translate(675.087 344.314)"/><line class="g" y2="16.29" transform="translate(686.082 344.314)"/><path class="e" d="M674.3,413.57V397l12.816,8.283Z" transform="translate(-5.624 -5.171)"/></g></g></svg>