<svg xmlns="http://www.w3.org/2000/svg" width="189.726" height="174.933" viewBox="0 0 189.726 174.933"><defs><style>.a{opacity:0.8;}.b{fill:#c56aff;}.c{opacity:0.3;}.d,.e{fill:none;stroke:#c56aff;stroke-linecap:square;}.d{stroke-miterlimit:10;}.e{stroke-width:2.2px;}</style></defs><g transform="translate(-932.5 -317.199)"><g transform="translate(933.208 317.906)"><g class="a"><circle class="b" cx="2.993" cy="2.993" r="2.993" transform="translate(74.439 168.24)"/><circle class="b" cx="2.993" cy="2.993" r="2.993" transform="translate(140.696 25.469)"/><circle class="b" cx="2.117" cy="2.117" r="2.117" transform="translate(180.997 113.7)"/><circle class="b" cx="1.497" cy="1.497" r="1.497" transform="translate(12.379 37.68)"/><circle class="b" cx="1.497" cy="1.497" r="1.497" transform="translate(36.308 139.175)"/><circle class="b" cx="1.497" cy="1.497" r="1.497" transform="translate(131.143 159.172)"/></g><g class="c"><g transform="translate(177.708 14.658)"><line class="d" x2="10.811" transform="translate(0 5.406)"/><line class="d" y1="10.811" transform="translate(5.406)"/></g><g transform="translate(4.358 120.96)"><line class="d" x2="10.811" transform="translate(0 5.406)"/><line class="d" y1="10.811" transform="translate(5.406)"/></g><g transform="translate(147.066 165.811)"><line class="d" x2="4.857" y2="4.857"/><line class="d" y1="4.857" x2="4.857"/></g><g transform="translate(83.218)"><line class="d" x2="4.857" y2="4.857"/><line class="d" y1="4.857" x2="4.857"/></g><g transform="translate(64.186 145.488)"><line class="d" x2="4.857" y2="4.857"/><line class="d" y1="4.857" x2="4.857"/></g><g transform="translate(0 72.98)"><line class="d" x2="7.645" y2="7.645"/><line class="d" y1="7.645" x2="7.645"/></g><circle class="d" cx="4.233" cy="4.233" r="4.233" transform="translate(159.551 57.153)"/><circle class="d" cx="2.117" cy="2.117" r="2.117" transform="translate(24.996 94.838)"/><circle class="d" cx="4.126" cy="4.126" r="4.126" transform="translate(39.301 14.717)"/><g transform="translate(158.055 131.976)"><line class="d" x2="2.993" y2="2.993"/><line class="d" y1="2.993" x2="2.993"/></g></g></g><g transform="translate(976.764 354.316)"><path class="e" d="M984.346,435.055a50.485,50.485,0,1,1,15.585,8.714" transform="translate(-965.764 -345.121)"/><path class="e" d="M1050.244,382.084a38.408,38.408,0,1,1-5.777-11.85" transform="translate(-962.652 -342.009)"/><path class="e" d="M999.247,400.281V373.919l20.394,13.181Z" transform="translate(-956.229 -336.397)"/></g></g></svg>