<svg xmlns="http://www.w3.org/2000/svg" width="144.051" height="130.58" viewBox="0 0 144.051 130.58"><defs><style>.a{opacity:0.8;}.b{fill:#4bffc1;}.c{opacity:0.3;}.d,.e,.f{fill:none;stroke:#4bffc1;}.d{stroke-miterlimit:10;}.e,.f{stroke-linecap:square;stroke-width:2.2px;}.f{stroke-linejoin:round;}</style></defs><g transform="translate(-776.244 -318.887)"><g class="a"><circle class="b" cx="2.237" cy="2.237" r="2.237" transform="translate(832.237 318.887)"/><circle class="b" cx="2.237" cy="2.237" r="2.237" transform="translate(886.523 430.076)"/><circle class="b" cx="1.582" cy="1.582" r="1.582" transform="translate(911.884 360.963)"/><circle class="b" cx="1.119" cy="1.119" r="1.119" transform="translate(785.849 418.712)"/><circle class="b" cx="1.119" cy="1.119" r="1.119" transform="translate(803.736 342.849)"/><circle class="b" cx="1.119" cy="1.119" r="1.119" transform="translate(876.903 358.22)"/></g><g class="c"><line class="d" x2="8.081" transform="translate(906.868 441.443)"/><line class="d" y2="8.081" transform="translate(910.909 437.402)"/><line class="d" x2="8.081" transform="translate(779.855 354.66)"/><line class="d" y2="8.081" transform="translate(783.895 350.62)"/><line class="d" y1="3.63" x2="3.63" transform="translate(886.523 321.547)"/><line class="d" x2="3.63" y2="3.63" transform="translate(886.523 321.547)"/><line class="d" y1="3.63" x2="3.63" transform="translate(838.799 445.483)"/><line class="d" x2="3.63" y2="3.63" transform="translate(838.799 445.483)"/><line class="d" y1="3.63" x2="3.63" transform="translate(825.011 359.148)"/><line class="d" x2="3.63" y2="3.63" transform="translate(825.011 359.148)"/><line class="d" y1="5.714" x2="5.714" transform="translate(776.597 400.188)"/><line class="d" x2="5.714" y2="5.714" transform="translate(776.597 400.188)"/><circle class="d" cx="3.164" cy="3.164" r="3.164" transform="translate(913.466 396.901)"/><circle class="d" cx="1.582" cy="1.582" r="1.582" transform="translate(778.273 375.062)"/><circle class="d" cx="3.084" cy="3.084" r="3.084" transform="translate(805.973 431.945)"/><line class="d" y1="2.237" x2="2.237" transform="translate(898.704 342.56)"/><line class="d" x2="2.237" y2="2.237" transform="translate(898.704 342.56)"/></g><g transform="translate(2.581 2.222)"><rect class="e" width="31.419" height="46.195" rx="4.39" transform="translate(795.601 374.342)"/><path class="e" d="M802.849,384.275h17.342V410.59" transform="translate(-0.356 -2.447)"/><path class="e" d="M820.786,419.308a5.84,5.84,0,0,1,0-11.679" transform="translate(-0.949 -3.593)"/><path class="e" d="M835.271,374.869s12.2-12.954,12.2-23.338.643-17.128,4.5-17.128,12.1,3,12.1,17.985v14.988H890.35a7.226,7.226,0,0,1,7.226,7.226h0a7.227,7.227,0,0,1-7.226,7.226h-4.335" transform="translate(-1.947)"/><path class="f" d="M896.49,387.99s.856,7.921-11.347,7.921" transform="translate(-4.394 -2.63)"/><path class="f" d="M893.541,401.161s1.071,6.53-11.776,6.53" transform="translate(-4.228 -3.276)"/><path class="e" d="M887.513,413.432s-1.163,9.421-11.788,9.421H835.271" transform="translate(-1.947 -3.878)"/></g></g></svg>