<svg xmlns="http://www.w3.org/2000/svg" width="144.051" height="130.58" viewBox="0 0 144.051 130.58"><defs><style>.a{opacity:0.8;}.b{fill:#ff4a9e;}.c{opacity:0.3;}.d,.e,.f{fill:none;stroke:#ff4a9e;}.d{stroke-miterlimit:10;}.e,.f{stroke-linecap:square;stroke-width:2.2px;}.f{stroke-linejoin:round;}</style></defs><g transform="translate(-642.368 -318.887)"><g class="a"><circle class="b" cx="2.237" cy="2.237" r="2.237" transform="translate(698.362 318.887)"/><circle class="b" cx="2.237" cy="2.237" r="2.237" transform="translate(752.647 430.076)"/><circle class="b" cx="1.582" cy="1.582" r="1.582" transform="translate(778.009 360.963)"/><circle class="b" cx="1.119" cy="1.119" r="1.119" transform="translate(651.974 418.712)"/><circle class="b" cx="1.119" cy="1.119" r="1.119" transform="translate(669.86 342.849)"/><circle class="b" cx="1.119" cy="1.119" r="1.119" transform="translate(740.745 327.902)"/></g><g class="c"><line class="d" x2="8.081" transform="translate(772.993 441.443)"/><line class="d" y2="8.081" transform="translate(777.034 437.402)"/><line class="d" x2="8.081" transform="translate(645.98 354.66)"/><line class="d" y2="8.081" transform="translate(650.02 350.62)"/><line class="d" y1="3.63" x2="3.63" transform="translate(752.647 321.547)"/><line class="d" x2="3.63" y2="3.63" transform="translate(752.647 321.547)"/><line class="d" y1="3.63" x2="3.63" transform="translate(704.923 445.483)"/><line class="d" x2="3.63" y2="3.63" transform="translate(704.923 445.483)"/><line class="d" y1="3.63" x2="3.63" transform="translate(672.994 405.636)"/><line class="d" x2="3.63" y2="3.63" transform="translate(672.994 405.636)"/><line class="d" y1="5.714" x2="5.714" transform="translate(642.722 388.85)"/><line class="d" x2="5.714" y2="5.714" transform="translate(642.722 388.85)"/><circle class="d" cx="3.164" cy="3.164" r="3.164" transform="translate(779.591 396.901)"/><circle class="d" cx="1.582" cy="1.582" r="1.582" transform="translate(661.405 375.062)"/><circle class="d" cx="3.084" cy="3.084" r="3.084" transform="translate(672.098 431.945)"/><line class="d" y1="2.237" x2="2.237" transform="translate(760.86 348.23)"/><line class="d" x2="2.237" y2="2.237" transform="translate(760.86 348.23)"/></g><g transform="translate(113.205 0.149)"><circle class="e" cx="4.841" cy="4.841" r="4.841" transform="translate(600.301 415.996)"/><g transform="translate(4 2)"><path class="e" d="M647.994,410.914l-2.841,2.841-4.77-16.589,16.589,4.77-5.91,5.91"/><line class="f" x1="7.431" y1="7.431" transform="translate(651.062 407.846)"/></g><path class="e" d="M576.082,351.613v-7.945a6.93,6.93,0,0,1,6.931-6.93h44.258a6.93,6.93,0,0,1,6.93,6.93v80.664a6.93,6.93,0,0,1-6.93,6.93H583.013a6.93,6.93,0,0,1-6.931-6.93V378.844"/><rect class="e" width="37.867" height="19.875" transform="translate(561.517 358.968)"/></g></g></svg>