<?xml version="1.0" encoding="utf-8"?>
<!-- Generator: Adobe Illustrator 25.2.3, SVG Export Plug-In . SVG Version: 6.00 Build 0)  -->
<svg version="1.1" id="Layer_1" xmlns="http://www.w3.org/2000/svg" xmlns:xlink="http://www.w3.org/1999/xlink" x="0px" y="0px"
	 viewBox="0 0 128 128" style="enable-background:new 0 0 128 128;" xml:space="preserve">
<style type="text/css">
	.st0{fill:#00005B;}
	.st1{fill:#9999FF;}
</style>
<g id="Layer_2_1_">
	<g id="Слой_1">
		<g id="Photoshop">
			<path id="Прямоугольник_22" class="st0" d="M20,0h88c11,0,20,9,20,20v88c0,11-9,20-20,20H20c-11,0-20-9-20-20V20
				C0,9,9,0,20,0z"/>
		</g>
	</g>
</g>
<g id="Layer_2_2_">
	<g id="Outlined_Mnemonics_Logos">
		<g id="An">
			<path class="st1" d="M51.8,76.2H32.2l-4,12.4c-0.1,0.5-0.5,0.8-1,0.7h-10c-0.6,0-0.7-0.3-0.6-1l17.1-48.8c0.2-0.5,0.3-1,0.5-1.6
				c0.2-1.1,0.3-2.3,0.3-3.4c-0.1-0.3,0.2-0.5,0.4-0.6c0.1,0,0.1,0,0.2,0h13.6c0.4,0,0.6,0.2,0.7,0.4l19.2,54c0.2,0.6,0,0.8-0.5,0.8
				H57c-0.4,0.1-0.7-0.2-0.8-0.6L51.8,76.2z M35.3,65.6h13.4c-0.3-1.1-0.7-2.4-1.2-3.8c-0.5-1.4-1-3-1.4-4.5c-0.5-1.6-1-3.2-1.5-4.9
				c-0.5-1.6-1-3.2-1.4-4.7c-0.4-1.5-0.8-2.9-1.2-4.1h-0.1c-0.5,2.3-1.1,4.5-1.8,6.8c-0.8,2.5-1.6,5.2-2.4,7.8
				C36.9,60.9,36.1,63.4,35.3,65.6z"/>
			<path class="st1" d="M74.6,88.5V57.1c0-1,0-2.1-0.1-3.2c-0.1-1.2-0.1-2.3-0.1-3.4c-0.1-1.1-0.1-2.1-0.2-2.7
				c-0.1-0.2-0.1-0.4,0.1-0.5c0.2-0.1,0.3-0.2,0.5-0.2h8.5c0.3,0,0.6,0.1,0.8,0.2c0.2,0.1,0.4,0.3,0.4,0.6c0.1,0.3,0.3,0.7,0.4,1.2
				c0.2,0.6,0.3,1.2,0.3,1.7c1.6-1.4,3.5-2.5,5.6-3.3c2.1-0.7,4.2-1.1,6.4-1.1c1.7,0,3.4,0.3,5,0.8c3.8,1.2,6.7,4.1,8,7.8
				c0.8,2.2,1.2,5,1.2,8.5v25c0,0.5-0.2,0.7-0.7,0.7l-9.9,0.1c-0.4,0.1-0.8-0.2-0.8-0.6c0-0.1,0-0.2,0-0.2V64.8
				c-0.1-1.6-0.4-3.2-1-4.6c-0.5-1.1-1.2-2-2.2-2.6c-1.1-0.7-2.3-1-3.6-1c-1.4,0-2.7,0.2-4,0.7c-1.2,0.5-2.2,1.2-3.2,2v29.2
				c0,0.5-0.2,0.7-0.7,0.7h-10c-0.4,0.1-0.7-0.2-0.7-0.6C74.5,88.6,74.5,88.6,74.6,88.5z"/>
		</g>
	</g>
</g>
</svg>
