<?xml version="1.0" encoding="utf-8"?>
<!-- Generator: Adobe Illustrator 26.0.3, SVG Export Plug-In . SVG Version: 6.00 Build 0)  -->
<svg version="1.1" id="Layer_1" xmlns="http://www.w3.org/2000/svg" xmlns:xlink="http://www.w3.org/1999/xlink" x="0px" y="0px"
	 viewBox="0 0 128 128" style="enable-background:new 0 0 128 128;" xml:space="preserve">
<style type="text/css">
	.st0{fill:#00005B;}
	.st1{fill:#9999FF;}
</style>
<g>
	<path class="st0" d="M22.7,1.6h82.7c12.5,0,22.7,10.1,22.7,22.7v79.5c0,12.5-10.1,22.7-22.7,22.7H22.7C10.1,126.4,0,116.3,0,103.7
		V24.3C0,11.7,10.1,1.6,22.7,1.6z"/>
	<path class="st1" d="M50.3,76.3H30.5l-4,12.6c-0.1,0.5-0.5,0.8-1,0.8h-10c-0.6,0-0.8-0.3-0.6-0.9l17.2-49.3
		c0.2-0.5,0.3-1.1,0.5-1.8c0.3-1.1,0.4-2.3,0.4-3.4c0-0.3,0.2-0.6,0.5-0.6c0,0,0.1,0,0.1,0h13.7c0.4,0,0.6,0.1,0.7,0.4l19.4,54.7
		c0.2,0.6,0,0.9-0.5,0.9H55.5c-0.4,0-0.8-0.2-0.9-0.6L50.3,76.3z M33.6,65.7h13.6c-0.3-1.1-0.7-2.4-1.2-3.9c-0.5-1.4-0.9-3-1.5-4.6
		c-0.5-1.6-1-3.3-1.5-4.9c-0.5-1.6-1-3.2-1.4-4.7c-0.4-1.5-0.8-2.9-1.2-4.2h-0.1c-0.5,2.3-1.1,4.6-1.8,6.9c-0.8,2.6-1.6,5.2-2.4,7.9
		C35.2,60.9,34.4,63.4,33.6,65.7L33.6,65.7z"/>
	<path class="st1" d="M108.2,47.6v32.7c0,1.4,0,2.7,0,3.8c0,1.1,0.1,2.1,0.2,2.9c0.1,0.8,0.2,1.3,0.2,1.9c0.1,0.5-0.1,0.7-0.6,0.7
		h-9.2c-0.4,0-0.9-0.2-1-0.6c-0.1-0.4-0.2-0.9-0.3-1.3c-0.1-0.4-0.1-0.7-0.1-1.1c-1.7,1.5-3.8,2.7-6,3.3c-1.9,0.5-3.9,0.8-5.9,0.8
		c-2,0-3.9-0.3-5.8-0.9c-1.7-0.6-3.3-1.6-4.6-2.9c-1.4-1.5-2.4-3.2-3-5.2c-0.8-2.5-1.1-5-1.1-7.6V47.7c0-0.3,0.2-0.6,0.5-0.7
		c0.1,0,0.1,0,0.2,0h10.2c0.3,0,0.6,0.2,0.7,0.5c0,0.1,0,0.1,0,0.2v25.1c0,2.3,0.5,4.2,1.5,5.5c1,1.3,3.1,2,5.5,2
		c1.2,0,2.5-0.2,3.6-0.6c1.2-0.4,2.3-1,3.4-1.8V47.6c0-0.4,0.3-0.6,0.8-0.6h10.2c0.3,0,0.6,0.2,0.6,0.5
		C108.2,47.5,108.2,47.5,108.2,47.6z"/>
</g>
</svg>
