<svg xmlns="http://www.w3.org/2000/svg" viewBox="0 0 128 128"><defs><style>.cls-1{fill:#013301;}.cls-2,.cls-3{fill:#3f6;}.cls-2{fill-rule:evenodd;}</style></defs><g id="Layer_2" data-name="Layer 2"><g id="Слой_1" data-name="Слой 1"><g id="Dimension"><rect id="Прямоугольник_10" data-name="Прямоугольник 10" class="cls-1" width="128" height="128" rx="20"/><path id="Контур_19" data-name="Контур 19" class="cls-2" d="M21.93,36.68H22q5.06-.15,16.47-.16c9.1,0,16.19,2.47,21.1,7.55s7.3,11.53,7.3,19.5A32.91,32.91,0,0,1,65,74.74h0a23.34,23.34,0,0,1-4.82,8.14,24.71,24.71,0,0,1-6.88,5.22,32.1,32.1,0,0,1-8.06,3h0a41.52,41.52,0,0,1-8.25.82q-7.67,0-15-.16a1.37,1.37,0,0,1-1.15-.61A1.83,1.83,0,0,1,20.59,90V38.28a1.65,1.65,0,0,1,.31-1,1.46,1.46,0,0,1,1-.57ZM37.26,82.46C42.82,82.46,47,80.92,50,78s4.51-7.67,4.51-14.24h0c.05-6.08-1.38-10.48-4.12-13.37s-6.67-4.41-11.9-4.41c-2.78,0-4.7,0-5.82.09V82.35C34.22,82.42,35.76,82.46,37.26,82.46Z"/><path id="Контур_20" data-name="Контур 20" class="cls-3" d="M82.15,53.86a10.67,10.67,0,0,0-.39-1.6l0-.11-.06-.1A2.14,2.14,0,0,0,79.81,51H72.16a1.37,1.37,0,0,0-1.48,1.26,1.16,1.16,0,0,0,0,.49Q71,56,71,61.17V90a1.8,1.8,0,0,0,.4,1.18,1.53,1.53,0,0,0,1.2.5h8.78a1.7,1.7,0,0,0,1.18-.4,1.59,1.59,0,0,0,.5-1.2V62.9A8.72,8.72,0,0,1,89.7,60a5,5,0,0,1,4.2,1.72,8,8,0,0,1,1.46,5.14V90a1.58,1.58,0,0,0,1.49,1.68.61.61,0,0,0,.19,0h8.78a1.5,1.5,0,0,0,1.19-.5,1.75,1.75,0,0,0,.41-1.17v-23c0-5.8-1.36-10.2-4.31-12.91a14.37,14.37,0,0,0-10.06-3.92A17.38,17.38,0,0,0,82.15,53.86Z"/></g></g></g></svg>