<svg xmlns="http://www.w3.org/2000/svg" viewBox="0 0 128 128"><defs><style>.cls-1{fill:#470137;}.cls-2,.cls-3{fill:#ff61f6;}.cls-2{fill-rule:evenodd;}</style></defs><g id="Layer_2" data-name="Layer 2"><g id="Слой_1" data-name="Слой 1"><g id="Dreamweaver"><rect id="Прямоугольник_12" data-name="Прямоугольник 12" class="cls-1" width="128" height="128" rx="20"/><path id="Контур_23" data-name="Контур 23" class="cls-2" d="M14.66,35.74h.06q8.94-.16,15.9-.16c8.9,0,15.79,2.5,20.54,7.59S58.21,54.87,58.21,63a34.23,34.23,0,0,1-1.86,11.66A24.5,24.5,0,0,1,51.66,83a24.31,24.31,0,0,1-6.81,5.28h0a31.07,31.07,0,0,1-7.79,2.88h0a40.49,40.49,0,0,1-7.92.76q-7.78,0-14.41-.17a1.1,1.1,0,0,1-1-.5,1.73,1.73,0,0,1-.24-1V37.11a1.48,1.48,0,0,1,.27-.88,1.27,1.27,0,0,1,.81-.48ZM42.18,49.08c-2.71-3-6.53-4.57-11.56-4.57-2.69,0-4.54,0-5.59.11V82.87c1.53.09,3.07.13,4.6.13C34.94,83,39,81.42,42,78.34s4.44-8.1,4.44-15.08c0-6.54-1.44-11.21-4.2-14.17Z"/><path id="Контур_24" data-name="Контур 24" class="cls-3" d="M95.5,90.61v0q-4.55-19-6.08-26c-.19.77-.42,1.63-.67,2.57q-.92,3.57-3,10.77T82.28,90.58a1.48,1.48,0,0,1-1.5,1.19H72a1.73,1.73,0,0,1-1-.29,1.65,1.65,0,0,1-.64-.83v0L59.74,51.68v0a1.35,1.35,0,0,1,.19-1.14A1.32,1.32,0,0,1,61,50.06h9a1.44,1.44,0,0,1,.87.29,1.78,1.78,0,0,1,.52.72l0,0,0,.06Q75.6,68.06,77.6,78.05q1.58-6.57,6.72-26.8v0l0,0a1.9,1.9,0,0,1,.5-.78,1.34,1.34,0,0,1,.9-.34h8.52a1.24,1.24,0,0,1,.89.35,1.43,1.43,0,0,1,.38.79q4.77,19.56,6.35,27,2.24-10.79,6.43-26.95a1.29,1.29,0,0,1,.48-.85,1.53,1.53,0,0,1,.95-.29h8.11A1.14,1.14,0,0,1,119,51.44v.05L107.41,90.66l0,.06a1.73,1.73,0,0,1-1.54,1H97a1.48,1.48,0,0,1-.93-.32,1.8,1.8,0,0,1-.56-.8Z"/></g></g></g></svg>