<?xml version="1.0" encoding="utf-8"?>
<!-- Generator: Adobe Illustrator 25.1.0, SVG Export Plug-In . SVG Version: 6.00 Build 0)  -->
<svg version="1.1" id="Layer_1" xmlns="http://www.w3.org/2000/svg" xmlns:xlink="http://www.w3.org/1999/xlink" x="0px" y="0px"
	 viewBox="0 0 128 128" style="enable-background:new 0 0 128 128;" xml:space="preserve">
<style type="text/css">
	.st0{fill:#00C9F3;}
	.st1{fill:none;}
	.st2{fill:#FFFFFF;}
</style>
<g id="Layer_2_1_">
	<g>
		<g id="Слой_1_8_">
			<g id="Photoshop_8_">
				<path id="Прямоугольник_22_8_" class="st0" d="M20-0.1h88c11,0,20,9,20,20v88c0,11-9,20-20,20H20c-11,0-20-9-20-20
					v-88C0,8.9,9-0.1,20-0.1z"/>
			</g>
		</g>
	</g>
</g>
<g>
	<path class="st1" d="M63,109.7h2c1.2,0,2.3-0.5,3.1-1.3h-8.2C60.7,109.2,61.8,109.7,63,109.7z"/>
	<path class="st1" d="M53.1,102h22c0.3,0,0.5-0.2,0.5-0.5c0-0.4-0.3-0.7-0.7-0.7H53.1c-0.3,0-0.6,0.2-0.6,0.6
		C52.5,101.7,52.7,102,53.1,102z"/>
	<path class="st1" d="M80.3,40c-4.8-4.5-11-6.8-17.6-6.4C51,34.3,41.4,43.5,40.4,55c-0.7,7,1.9,13.9,6.9,18.9
		c5.7,5.7,9.1,12.9,9.7,20.4h14c0.6-7.6,4-14.7,9.6-20.2l0,0c4.6-4.4,7.1-10.4,7.1-16.8C87.7,50.7,85.1,44.6,80.3,40z M82.1,60.4
		c-1.7,0-3.2-1.5-3.2-3.2c0-8.2-6.7-14.9-14.9-14.9c-1.7,0-3.2-1.5-3.2-3.2c0-1.7,1.5-3.2,3.2-3.2c5.8,0,11.2,2.2,15.2,6.3
		c4,4,6.2,9.4,6.1,15C85.3,58.9,83.8,60.4,82.1,60.4z"/>
	<path class="st2" d="M84.7,35.4c-6.1-5.7-14-8.6-22.4-8.2l0,0C47.4,28,35.3,39.8,34,54.6c-0.7,9,2.4,17.7,8.7,24
		c4.6,4.6,7.3,10.3,7.8,16.3c-2.7,1-4.5,3.6-4.5,6.5c0,3.7,2.9,6.8,6.6,7c1.3,4.5,5.5,7.7,10.2,7.7H65c4.8,0,8.9-3.2,10.2-7.7
		c3.8-0.1,6.8-3.2,6.8-7c0-3-1.8-5.6-4.5-6.6c0.5-6,3.1-11.7,7.6-16.1c5.8-5.6,9.1-13.3,9.1-21.5C94.1,48.9,90.8,41.1,84.7,35.4z
		 M65,109.7h-2c-1.2,0-2.3-0.5-3.1-1.3h8.2C67.3,109.2,66.2,109.7,65,109.7z M53.1,100.8h21.8c0.4,0,0.7,0.3,0.7,0.7
		c0,0.3-0.2,0.5-0.5,0.5h-22c-0.4,0-0.6-0.3-0.6-0.6C52.5,101,52.8,100.8,53.1,100.8z M80.5,74.1C75,79.6,71.6,86.7,71,94.3H57
		c-0.7-7.5-4.1-14.7-9.7-20.4c-5-5-7.5-11.9-6.9-18.9c1-11.6,10.6-20.8,22.3-21.4c6.6-0.4,12.8,1.9,17.6,6.4
		c4.8,4.5,7.4,10.7,7.4,17.3C87.7,63.7,85.2,69.7,80.5,74.1L80.5,74.1z"/>
	<path class="st2" d="M64,42.3c8.2,0,14.9,6.7,14.9,14.9l6.4,0c0.1-5.6-2.1-11-6.1-15c-4-4.1-9.4-6.3-15.2-6.3"/>
</g>
<g>
	<g>
		<rect x="61.5" y="7.8" class="st2" width="5" height="11.8"/>
	</g>
	<g>
		<rect x="101" y="54.1" class="st2" width="11.8" height="5"/>
	</g>
	<g>
		<rect x="101" y="54.1" class="st2" width="11.8" height="5"/>
	</g>
	<g>
		<rect x="98" y="38" transform="matrix(0.9272 -0.3746 0.3746 0.9272 -7.6213 41.8859)" class="st2" width="11.8" height="5"/>
	</g>
	<g>
		<rect x="88.3" y="23.6" transform="matrix(0.7194 -0.6946 0.6946 0.7194 8.2974 72.7468)" class="st2" width="11.8" height="5"/>
	</g>
	<g>
		<rect x="74.3" y="14.9" transform="matrix(0.4067 -0.9136 0.9136 0.4067 31.6671 83.5237)" class="st2" width="11.8" height="5"/>
	</g>
	<g>
		<rect x="45.2" y="11" transform="matrix(0.9397 -0.342 0.342 0.9397 -2.9147 17.3362)" class="st2" width="5" height="11.8"/>
	</g>
	<g>
		<rect x="30.4" y="20.3" transform="matrix(0.7431 -0.6692 0.6692 0.7431 -9.0796 28.7656)" class="st2" width="5" height="11.8"/>
	</g>
	<g>
		<rect x="21.2" y="34" transform="matrix(0.4384 -0.8988 0.8988 0.4384 -22.5713 43.7444)" class="st2" width="5" height="11.8"/>
	</g>
	<g>
		<rect x="17.3" y="71" transform="matrix(0.9511 -0.309 0.309 0.9511 -21.5653 10.7732)" class="st2" width="11.8" height="5"/>
	</g>
	<g>
		<rect x="101.1" y="67.6" transform="matrix(0.309 -0.9511 0.9511 0.309 1.7043 149.2876)" class="st2" width="5" height="11.8"/>
	</g>
	<g>
		<rect x="15.2" y="54.1" class="st2" width="11.8" height="5"/>
	</g>
</g>
</svg>
