<?xml version="1.0" encoding="utf-8"?>
<!-- Generator: Adobe Illustrator 24.2.3, SVG Export Plug-In . SVG Version: 6.00 Build 0)  -->
<svg version="1.1" xmlns="http://www.w3.org/2000/svg" xmlns:xlink="http://www.w3.org/1999/xlink" x="0px" y="0px"
	 viewBox="0 0 128 128" style="enable-background:new 0 0 128 128;" xml:space="preserve">
<style type="text/css">
	.st0{fill:none;}
	.st1{fill:#09A1A1;}
	.st2{fill:#015051;}
	.st3{fill:#016B6B;}
	.st4{fill:#013636;}
	.st5{fill:#FDFEFE;}
	.st6{fill:#001717;}
</style>
<g id="Layer_1">
	<g>
		<path class="st0" d="M59.5,85c0,0.1,0.1,0.2,0.2,0.3C59.6,85.2,59.5,85.1,59.5,85c-0.1,0-0.2,0-0.3-0.1C59.3,85,59.4,85,59.5,85z"
			/>
		<path class="st0" d="M80.2,120c0.1,0,0.1,0.1,0.1,0.1C80.3,120,80.2,120,80.2,120C80.2,120,80.2,120,80.2,120z"/>
		<path class="st0" d="M80.1,120c-0.1,0.1-0.1,0.1-0.1,0.2C80,120.1,80.1,120.1,80.1,120z"/>
		<path class="st0" d="M59.3,73.2c0-10.7,0-21.4,0-32.2C59.3,51.7,59.3,62.5,59.3,73.2L59.3,73.2z"/>
		<path class="st0" d="M27.7,85.1c0,0,0.1-0.1,0.2-0.1C27.8,85,27.7,85.1,27.7,85.1z"/>
		<path class="st0" d="M28.5,84.7c-0.2,0.1-0.3,0.1-0.5,0.2c0,0,0,0,0,0C28.1,84.8,28.3,84.8,28.5,84.7z"/>
		<path class="st1" d="M108,0H20C9,0,0,9,0,20v88c0,11,9,20,20,20h88c11,0,20-9,20-20V20C128,9,119,0,108,0z M54.7,124.7
			c-0.8,0-1.6,0-2.4,0c-0.2,0-0.3-0.1-0.3-0.3c0-1.7,0-3.4,0.1-5.1c0.1-1.4,0.2-2.8,0.3-4.3c0-0.1,0-0.2,0-0.4
			c-0.1,0.1-0.1,0.3-0.2,0.4c-0.5,1.8-1,3.6-1.5,5.5c-0.1,0.5,0,0.5-0.6,0.5c-0.3,0-0.5,0-0.8,0c-0.2,0-0.3-0.1-0.4-0.3
			c-0.3-1.2-0.6-2.3-1-3.5c-0.2-0.8-0.4-1.6-0.6-2.4c0-0.1,0-0.2-0.2-0.4c0,0.5,0.1,1,0.1,1.4c0.2,2.4,0.4,4.7,0.3,7.1
			c0,0.5,0,0.9,0,1.4c0,0.2,0,0.3-0.3,0.3c-0.8,0-1.6,0-2.3,0c-0.2,0-0.3-0.1-0.3-0.3c0-0.1,0-0.2,0-0.3c0-4.3,0-8.5,0-12.8
			c0,0,0-0.1,0-0.1c0-0.5,0-0.4,0.4-0.4c0.9,0,1.9,0,2.8,0c0.4,0,0.4,0,0.5,0.3c0.5,1.9,1,3.7,1.4,5.6c0,0.1,0,0.2,0.1,0.3
			c0.2-0.4,0.2-0.8,0.3-1.2c0.4-1.6,0.8-3.1,1.1-4.7c0.1-0.2,0.2-0.3,0.4-0.3c1,0,2,0,2.9,0c0.3,0,0.3,0,0.3,0.4c0,0.5,0,0.9,0,1.4
			c0,3.9,0,7.7,0,11.6c0,0.1,0,0.2,0,0.4C55,124.7,54.9,124.7,54.7,124.7z M71.4,124.7c-0.1,0-0.1,0-0.2,0c-1.1,0-2.2,0-3.3,0
			c-0.2,0-0.3-0.1-0.4-0.3c-0.2-0.8-0.4-1.5-0.5-2.3c-0.1-0.3-0.2-0.3-0.4-0.3c-1,0-2.1,0-3.1,0c-0.3,0-0.4,0-0.4,0.4
			c-0.2,0.7-0.3,1.5-0.5,2.2c-0.1,0.4-0.1,0.4-0.5,0.4c-1,0-2,0-3,0c-0.1,0-0.2,0-0.3,0c-0.1-0.1,0-0.3,0.1-0.4
			c1.3-4.3,2.6-8.7,3.9-13c0.1-0.4,0.1-0.4,0.5-0.4c1.2,0,2.4,0,3.6,0c0.4,0,0.4,0,0.5,0.4c1.3,4.4,2.6,8.7,3.9,13.1
			C71.4,124.4,71.5,124.5,71.4,124.7z M86.3,124.7c-1.1,0-2.3,0-3.4,0c-0.3,0-0.4-0.1-0.5-0.4c-0.7-1.4-1.4-2.7-2-4.2
			c0,0,0-0.1-0.1-0.1c0,0-0.1-0.1-0.1-0.1c0,0,0,0,0,0c-0.1,0.1-0.1,0.1-0.1,0.2c-0.6,1.4-1.3,2.8-1.9,4.2c-0.1,0.2-0.1,0.3-0.4,0.3
			c-1.2,0-2.4,0-3.6,0c0-0.2,0.1-0.4,0.2-0.5c1.2-2.1,2.3-4.2,3.5-6.2c0.2-0.3,0.2-0.5,0-0.8c-1.1-2-2.2-3.9-3.3-5.9
			c-0.1-0.1-0.2-0.2-0.2-0.4c0.1-0.1,0.2-0.1,0.3-0.1c1.1,0,2.3,0,3.4,0c0.3,0,0.4,0.1,0.5,0.3c0.6,1.3,1.2,2.5,1.8,3.8
			c0.1,0.1,0.1,0.3,0.2,0.4c0.1,0,0.1-0.2,0.2-0.3c0.5-1.4,1.1-2.7,1.7-4c0.1-0.2,0.2-0.3,0.4-0.3c1.1,0,2.3,0,3.4,0
			c0.1,0,0.1,0,0.2,0.1c0,0.1-0.1,0.3-0.2,0.4c-1.1,2-2.2,4.1-3.3,6.1c-0.2,0.3-0.2,0.5,0,0.8c1.2,2,2.3,4.1,3.5,6.1
			c0.1,0.1,0.2,0.3,0.2,0.4C86.5,124.8,86.4,124.7,86.3,124.7z M102.3,57.6c-2.8,5.5-5.6,11.1-8.3,16.6c-4.8,9.6-9.6,19.1-14.4,28.7
			c0,0.1-0.1,0.2-0.1,0.3c-0.1,0.2-0.2,0.2-0.4,0.1c-0.2,0-0.4,0-0.6,0c-14.1,0-28.2,0-42.3,0c-0.1,0-0.2,0-0.3,0
			c-0.2,0-0.4-0.1-0.5-0.3c-0.9-2.1-1.8-4.2-2.7-6.3c-1.1-2.5-2.1-5-3.2-7.4c-0.6-1.3-1.1-2.6-1.7-3.9c-0.1-0.2-0.1-0.3-0.1-0.3
			c0,0,0.1-0.1,0.2-0.1c0,0,0,0,0.1,0c0.1-0.1,0.3-0.2,0.5-0.2c6.9-2.6,13.9-5.2,20.8-7.8c0.3-0.1,0.5-0.2,0.8-0.3
			c-0.2-0.3-0.4-0.5-0.6-0.7c-0.2-0.2-0.5-0.4-0.7-0.7c-0.6-0.6-1.3-1.2-1.9-1.8c-1.4-1.3-2.7-2.6-4.1-3.9c-1.5-1.5-3.1-2.9-4.7-4.4
			c-1.5-1.4-3-2.9-4.6-4.3c-1.2-1.1-2.3-2.2-3.5-3.3c-0.5-0.5-0.5-0.5,0-1c1-0.9,1.9-1.8,2.9-2.7c1.6-1.5,3.2-3,4.8-4.5
			c0.9-0.9,1.9-1.8,2.8-2.6c1.7-1.6,3.4-3.2,5.2-4.8c0.6-0.6,1.2-1.2,1.8-1.7c0.9-0.8,1.8-1.7,2.7-2.5c-1.3-0.5-2.5-1-3.8-1.4
			c-6-2.2-12-4.5-18-6.7c-0.1,0-0.3-0.1-0.4-0.1c-0.4-0.2-0.4-0.2-0.3-0.6c1.6-3.7,3.2-7.4,4.8-11.1c0.9-2.1,1.8-4.1,2.6-6.2
			c0.3-0.7,0.2-0.6,1-0.6c14.1,0,28.1,0,42.2,0c0.2,0,0.4,0,0.7,0c0.2-0.1,0.3-0.1,0.4,0.1c0.3,0.7,0.7,1.3,1,2
			c4.3,8.6,8.6,17.2,12.9,25.8c3,5.9,6,11.9,9,17.8C102.5,57,102.5,57.2,102.3,57.6z"/>
		<path class="st2" d="M93.4,38.8c-4.3-8.6-8.6-17.2-12.9-25.8c-0.3-0.7-0.7-1.3-1-2c-0.1-0.2-0.2-0.2-0.4-0.1
			c0,0.2-0.2,0.3-0.3,0.4c-0.7,0.6-1.4,1.3-2.1,1.9c-1.1,1-2.2,2-3.2,3c-0.5,0.4-0.9,0.9-1.3,1.3c-0.7,0.6-1.3,1.2-2,1.8
			c-1,0.9-2,1.8-3,2.8c-0.5,0.4-0.9,0.9-1.3,1.3c-0.7,0.6-1.3,1.2-1.9,1.8c-1,0.9-2,1.8-3,2.7c-0.4,0.4-0.8,0.8-1.2,1.2
			c-0.1,0.1-0.1,0.1-0.1,0.2c0.9,0.5,1.7,1.1,2.5,1.6c2.4,1.6,4.9,3.2,7.3,4.8c4.4,2.9,8.8,5.7,13.3,8.6c2.7,1.8,5.5,3.5,8.2,5.3
			c3.5,2.3,7.1,4.6,10.6,6.9c0.1,0.1,0.3,0.2,0.4,0.3c-0.2,0.1-0.3,0-0.4-0.1c-4.7-1.7-9.3-3.5-14-5.2c-3.8-1.4-7.5-2.8-11.3-4.2
			c-4.2-1.5-8.3-3.1-12.5-4.6c-1.5-0.5-2.9-1.1-4.4-1.6c0,10.7,0,21.4,0,32.2c2.4-0.9,4.8-1.8,7.2-2.7c2.8-1,5.6-2.1,8.4-3.1
			c3.3-1.2,6.7-2.5,10-3.7c2.7-1,5.4-2,8.1-3c2.8-1,5.6-2.1,8.4-3.1c0.1,0,0.2-0.1,0.4-0.1c0,0.2-0.2,0.2-0.3,0.3
			c-1.3,0.9-2.7,1.7-4,2.6c-1.2,0.8-2.5,1.6-3.7,2.4c-4.1,2.7-8.2,5.3-12.4,8c-2.6,1.7-5.1,3.3-7.7,5c-3.9,2.5-7.9,5.1-11.8,7.6
			c-0.8,0.5-1.7,1.1-2.5,1.6c0,0.1,0.1,0.2,0.2,0.3c0.8,0.7,1.5,1.4,2.3,2.1c1,0.9,1.9,1.8,2.9,2.7c0.5,0.4,0.9,0.9,1.4,1.3
			c0.7,0.6,1.3,1.2,2,1.8c1,0.9,1.9,1.8,2.9,2.6c0.4,0.4,0.9,0.8,1.3,1.2c0.7,0.6,1.3,1.2,1.9,1.8c1,0.9,2,1.9,3,2.8
			c0.5,0.4,0.9,0.9,1.4,1.3c0.1,0.1,0.2,0.2,0.3,0.4c0.2,0.1,0.3,0.1,0.4-0.1c0-0.1,0.1-0.2,0.1-0.3c4.8-9.6,9.6-19.1,14.4-28.7
			c2.8-5.5,5.5-11.1,8.3-16.6c0.2-0.4,0.2-0.6,0-1C99.3,50.7,96.4,44.7,93.4,38.8z"/>
		<path class="st3" d="M50.3,76.6c0.8-0.4,1.6-0.6,2.4-0.9c2.1-0.8,4.3-1.6,6.4-2.4c0.1,0,0.1-0.1,0.2-0.1c0-10.7,0-21.4,0-32.2
			c-1.7-0.7-3.5-1.3-5.2-2c-1.1-0.4-2.2-0.8-3.4-1.3c-0.1-0.1-0.3-0.1-0.4-0.2c0,0-0.1,0-0.1,0c-0.9,0.8-1.8,1.7-2.7,2.5
			c-0.6,0.6-1.2,1.2-1.8,1.7c-1.7,1.6-3.4,3.2-5.2,4.8c-0.9,0.9-1.9,1.8-2.8,2.6c-1.6,1.5-3.2,3-4.8,4.5c-1,0.9-1.9,1.8-2.9,2.7
			c-0.6,0.5-0.6,0.5,0,1c1.2,1.1,2.4,2.2,3.5,3.3c1.5,1.4,3,2.9,4.6,4.3c1.6,1.5,3.1,2.9,4.7,4.4c1.4,1.3,2.7,2.6,4.1,3.9
			c0.6,0.6,1.3,1.2,1.9,1.8c0.2,0.2,0.5,0.4,0.7,0.7c0.2,0.2,0.5,0.5,0.6,0.7h0C50.2,76.6,50.2,76.6,50.3,76.6z"/>
		<path class="st3" d="M78.8,103c-0.5-0.4-0.9-0.9-1.4-1.3c-1-0.9-2-1.9-3-2.8c-0.6-0.6-1.3-1.2-1.9-1.8c-0.5-0.4-0.9-0.8-1.3-1.2
			c-1-0.9-1.9-1.7-2.9-2.6c-0.7-0.6-1.3-1.3-2-1.8c-0.5-0.4-0.9-0.9-1.4-1.3c-1-0.9-2-1.8-2.9-2.7c-0.8-0.7-1.5-1.4-2.3-2.1
			c-0.1-0.1-0.2-0.2-0.2-0.3c-0.1,0-0.2,0-0.3-0.1c-0.3,0.1-0.5,0-0.8,0c-9.9,0-19.7,0-29.6,0c-0.3,0-0.5,0-0.8,0c0,0,0,0,0,0
			c0,0,0,0-0.1,0c-0.1,0-0.2,0.1-0.2,0.1c0,0.1,0,0.1,0.1,0.3c0.6,1.3,1.1,2.6,1.7,3.9c1.1,2.5,2.1,5,3.2,7.4
			c0.9,2.1,1.8,4.2,2.7,6.3c0.1,0.2,0.2,0.3,0.5,0.3c0.1,0,0.2,0,0.3,0c14.1,0,28.2,0,42.3,0c0.2,0,0.4,0,0.6,0
			C79,103.2,78.9,103.1,78.8,103z"/>
		<path class="st3" d="M58.8,29.2c0.1,0,0.3,0,0.4,0c0,0,0.1,0,0.1,0.1c0.1,0,0.1-0.1,0.2-0.1c0-0.1,0-0.2,0.1-0.2
			c0.5-0.3,0.8-0.8,1.2-1.2c1-0.9,2-1.8,3-2.7c0.6-0.6,1.2-1.2,1.9-1.8c0.5-0.4,0.9-0.8,1.3-1.3c1-0.9,2-1.8,3-2.8
			c0.7-0.6,1.3-1.3,2-1.8c0.5-0.4,0.9-0.8,1.3-1.3c1.1-1,2.2-2,3.2-3c0.7-0.6,1.4-1.3,2.1-1.9c0.1-0.1,0.3-0.2,0.3-0.4
			c-0.2,0-0.4,0-0.7,0c-14.1,0-28.1,0-42.2,0c-0.8,0-0.7-0.1-1,0.6c-0.9,2-1.8,4.1-2.6,6.2c-1.6,3.7-3.2,7.4-4.8,11.1
			c-0.2,0.4-0.2,0.4,0.3,0.6c0.2-0.1,0.3-0.1,0.5-0.1C38.6,29.2,48.7,29.2,58.8,29.2z"/>
		<path class="st4" d="M51.4,36.5c0.6-0.5,1.1-1,1.7-1.5c0.7-0.7,1.5-1.4,2.3-2c0.3-0.3,0.7-0.6,1-0.9c1-0.8,1.9-1.7,2.9-2.6
			c0,0,0.1-0.1,0.1-0.2c0,0-0.1-0.1-0.1-0.1c-0.1,0-0.3,0-0.4,0c-10.1,0-20.2,0-30.2,0c-0.2,0-0.3,0-0.5,0.1
			c0.1,0.1,0.2,0.1,0.4,0.1c6,2.2,12,4.5,18,6.7c1.3,0.5,2.5,1,3.8,1.4c0,0,0.1,0,0.1,0C50.7,37.2,51,36.9,51.4,36.5z"/>
		<path class="st4" d="M28.8,85c9.9,0,19.7,0,29.6,0c0.3,0,0.5,0,0.8,0c0-0.1-0.1-0.1-0.1-0.2c-0.6-0.5-1.1-1.1-1.7-1.5
			c0,0-0.1-0.1-0.1-0.1c-0.7-0.7-1.4-1.3-2.1-2c-1-1-2.1-1.9-3.1-2.9c-0.6-0.5-1.1-1.1-1.6-1.6c-0.1,0-0.1,0-0.2,0h0
			c-0.3,0.1-0.5,0.2-0.8,0.3c-6.9,2.6-13.9,5.2-20.8,7.8c-0.2,0.1-0.3,0.1-0.5,0.2C28.3,85,28.5,85,28.8,85z"/>
		<path class="st5" d="M55,112.5c0-0.5,0-0.9,0-1.4c0-0.3,0-0.4-0.3-0.4c-1,0-2,0-2.9,0c-0.3,0-0.4,0.1-0.4,0.3
			c-0.4,1.6-0.7,3.2-1.1,4.7c-0.1,0.4-0.1,0.8-0.3,1.2c-0.1-0.1-0.1-0.2-0.1-0.3c-0.4-1.9-0.9-3.7-1.4-5.6c-0.1-0.3-0.1-0.3-0.5-0.3
			c-0.9,0-1.9,0-2.8,0c-0.5,0-0.4,0-0.4,0.4c0,0,0,0.1,0,0.1c0,4.3,0,8.5,0,12.8c0,0.1,0,0.2,0,0.3c0,0.2,0.1,0.3,0.3,0.3
			c0.8,0,1.6,0,2.3,0c0.3,0,0.3-0.1,0.3-0.3c0-0.5,0-0.9,0-1.4c0-2.4-0.1-4.7-0.3-7.1c0-0.5-0.1-0.9-0.1-1.4
			c0.1,0.1,0.1,0.2,0.2,0.4c0.2,0.8,0.4,1.6,0.6,2.4c0.3,1.2,0.7,2.3,1,3.5c0.1,0.2,0.2,0.3,0.4,0.3c0.3,0,0.5,0,0.8,0
			c0.6,0,0.5,0,0.6-0.5c0.5-1.8,1-3.6,1.5-5.5c0-0.1,0-0.3,0.2-0.4c0.1,0.1,0,0.3,0,0.4c-0.1,1.4-0.2,2.8-0.3,4.3
			c-0.1,1.7-0.1,3.4-0.1,5.1c0,0.2,0,0.3,0.3,0.3c0.8,0,1.6,0,2.4,0c0.2,0,0.3,0,0.3-0.3c0-0.1,0-0.2,0-0.4
			C55,120.2,55,116.4,55,112.5z"/>
		<path class="st5" d="M67.4,111.2c-0.1-0.4-0.1-0.4-0.5-0.4c-1.2,0-2.4,0-3.6,0c-0.4,0-0.4,0-0.5,0.4c-1.3,4.3-2.6,8.7-3.9,13
			c0,0.1-0.1,0.3-0.1,0.4c0.1,0.1,0.2,0,0.3,0c1,0,2,0,3,0c0.4,0,0.4,0,0.5-0.4c0.2-0.7,0.3-1.5,0.5-2.2c0.1-0.4,0.1-0.4,0.4-0.4
			c1,0,2.1,0,3.1,0c0.3,0,0.4,0.1,0.4,0.3c0.2,0.8,0.4,1.5,0.5,2.3c0,0.2,0.2,0.3,0.4,0.3c1.1,0,2.2,0,3.3,0c0.1,0,0.1,0,0.2,0
			c0.1-0.2,0-0.3-0.1-0.4C70.1,119.9,68.7,115.5,67.4,111.2z M66,118.9c-0.6,0-1.3,0-1.9,0c-0.1,0-0.3,0-0.2-0.2
			c0.4-1.7,0.7-3.3,1.1-5c0,0,0,0,0.1-0.1c0.2,0.7,0.3,1.4,0.5,2.1c0.2,1,0.4,2,0.7,2.9C66.3,118.9,66.3,118.9,66,118.9z"/>
		<path class="st5" d="M82.9,118.1c-0.2-0.3-0.2-0.5,0-0.8c1.1-2,2.2-4.1,3.3-6.1c0.1-0.1,0.2-0.2,0.2-0.4c-0.1-0.1-0.1-0.1-0.2-0.1
			c-1.1,0-2.3,0-3.4,0c-0.2,0-0.3,0.1-0.4,0.3c-0.6,1.3-1.2,2.6-1.7,4c0,0.1,0,0.2-0.2,0.3c-0.1-0.1-0.2-0.3-0.2-0.4
			c-0.6-1.3-1.2-2.5-1.8-3.8c-0.1-0.2-0.2-0.3-0.5-0.3c-1.1,0-2.3,0-3.4,0c-0.1,0-0.2,0-0.3,0.1c0,0.2,0.1,0.3,0.2,0.4
			c1.1,2,2.2,3.9,3.3,5.9c0.2,0.3,0.2,0.5,0,0.8c-1.2,2.1-2.3,4.2-3.5,6.2c-0.1,0.1-0.2,0.3-0.2,0.5c1.2,0,2.4,0,3.6,0
			c0.2,0,0.3-0.1,0.4-0.3c0.7-1.4,1.4-2.8,1.9-4.2c0-0.1,0.1-0.2,0.1-0.2c0,0,0,0,0,0c0,0,0,0,0,0c0.1,0,0.1,0.1,0.1,0.1
			s0,0.1,0.1,0.1c0.6,1.4,1.4,2.8,2,4.2c0.1,0.2,0.3,0.4,0.5,0.4c1.1,0,2.3,0,3.4,0c0.1,0,0.2,0,0.3-0.1c-0.1-0.1-0.1-0.3-0.2-0.4
			C85.2,122.2,84,120.1,82.9,118.1z"/>
		<path class="st6" d="M59.1,73.3c-2.1,0.8-4.3,1.6-6.4,2.4c-0.8,0.3-1.6,0.6-2.4,0.9c0.5,0.5,1.1,1.1,1.6,1.6c1,1,2.1,1.9,3.1,2.9
			c0.7,0.7,1.5,1.3,2.1,2c0,0,0.1,0.1,0.1,0.1c0.6,0.5,1.1,1.1,1.7,1.5c0.1,0,0.1,0.1,0.1,0.2c0.1,0,0.2,0,0.3,0.1
			c0.8-0.5,1.7-1.1,2.5-1.6c3.9-2.5,7.9-5.1,11.8-7.6c2.6-1.7,5.1-3.3,7.7-5c4.1-2.7,8.2-5.3,12.4-8c1.2-0.8,2.5-1.6,3.7-2.4
			c1.3-0.9,2.7-1.7,4-2.6c0.1-0.1,0.3-0.1,0.3-0.3c-0.2,0-0.3,0.1-0.4,0.1c-2.8,1-5.6,2.1-8.4,3.1c-2.7,1-5.4,2-8.1,3
			c-3.3,1.2-6.7,2.5-10,3.7c-2.8,1-5.6,2.1-8.4,3.1c-2.4,0.9-4.8,1.8-7.2,2.7h0C59.2,73.2,59.2,73.3,59.1,73.3z"/>
		<path class="st6" d="M59.2,29.5c-0.9,0.9-1.9,1.8-2.9,2.6c-0.3,0.3-0.7,0.6-1,0.9c-0.8,0.7-1.5,1.3-2.3,2c-0.5,0.5-1.1,1-1.7,1.5
			c-0.4,0.3-0.8,0.7-1.1,1.1c0.1,0.1,0.3,0.1,0.4,0.2c1.1,0.4,2.2,0.8,3.4,1.3c1.7,0.7,3.5,1.3,5.2,2c1.5,0.5,2.9,1.1,4.4,1.6
			c4.2,1.5,8.3,3.1,12.5,4.6c3.8,1.4,7.5,2.8,11.3,4.2c4.7,1.7,9.3,3.5,14,5.2c0.1,0,0.2,0.1,0.4,0.1c-0.1-0.2-0.3-0.2-0.4-0.3
			c-3.5-2.3-7.1-4.6-10.6-6.9c-2.7-1.8-5.5-3.5-8.2-5.3c-4.4-2.9-8.8-5.7-13.3-8.6c-2.4-1.6-4.9-3.2-7.3-4.8
			c-0.8-0.5-1.7-1.1-2.5-1.6c-0.1,0-0.1,0.1-0.2,0.1C59.3,29.4,59.3,29.4,59.2,29.5z"/>
		<path class="st1" d="M65.5,115.7c-0.2-0.7-0.3-1.4-0.5-2.1c-0.1,0.1-0.1,0.1-0.1,0.1c-0.4,1.7-0.7,3.3-1.1,5
			c0,0.2,0.1,0.2,0.2,0.2c0.6,0,1.3,0,1.9,0c0.3,0,0.3,0,0.2-0.3C66,117.6,65.8,116.6,65.5,115.7z"/>
	</g>
</g>
<g id="Layer_2">
</g>
<g id="Layer_3">
</g>
<g id="Layer_4">
</g>
<g id="Layer_5">
</g>
</svg>
