<?xml version="1.0" encoding="utf-8"?>
<!-- Generator: Adobe Illustrator 25.0.1, SVG Export Plug-In . SVG Version: 6.00 Build 0)  -->
<svg version="1.1" xmlns="http://www.w3.org/2000/svg" xmlns:xlink="http://www.w3.org/1999/xlink" x="0px" y="0px"
	 viewBox="0 0 128 128" style="enable-background:new 0 0 128 128;" xml:space="preserve">
<style type="text/css">
	.st0{fill:url(#SVGID_1_);}
	.st1{fill:url(#SVGID_2_);}
	.st2{fill:#DFE2EB;}
	.st3{fill:none;}
	.st4{fill:url(#SVGID_6_);}
	.st5{fill:url(#SVGID_7_);}
	.st6{fill:url(#SVGID_8_);}
	.st7{fill:#C4C5C6;}
	.st8{opacity:0.71;fill:#1E1E1E;}
</style>
<g id="Layer_1">
	<linearGradient id="SVGID_1_" gradientUnits="userSpaceOnUse" x1="122.4028" y1="-30.6508" x2="20.2714" y2="50.4587">
		<stop  offset="4.528621e-07" style="stop-color:#5C5C5C"/>
		<stop  offset="1" style="stop-color:#000000"/>
	</linearGradient>
	<path class="st0" d="M128,20v1.1H0V20c0-0.3,0-0.7,0-1c0-0.3,0-0.6,0.1-0.9c0-0.1,0-0.2,0-0.3c0-0.3,0.1-0.5,0.1-0.8
		c0,0,0-0.1,0-0.1c0-0.3,0.1-0.6,0.2-0.8c0.1-0.3,0.1-0.5,0.2-0.8c0.1-0.4,0.2-0.8,0.3-1.2c0.1-0.3,0.2-0.5,0.3-0.8
		c0.1-0.2,0.1-0.4,0.2-0.6c0.1-0.2,0.1-0.4,0.2-0.6c0.1-0.2,0.2-0.4,0.3-0.6C2,11.3,2.1,11.1,2.2,11c0.2-0.5,0.5-1,0.8-1.4
		C3,9.4,3.1,9.3,3.2,9.2c0.2-0.3,0.4-0.5,0.5-0.8C4,8,4.2,7.7,4.5,7.4C4.7,7.1,5,6.8,5.2,6.5l0,0c0.3-0.3,0.5-0.6,0.8-0.9
		C6.4,5.4,6.7,5.1,7,4.8c0.3-0.3,0.6-0.5,0.9-0.8C8,4,8,4,8.1,3.9c0,0,0.1,0,0.1-0.1c0.2-0.2,0.4-0.3,0.6-0.4c0,0,0,0,0.1-0.1
		c0.6-0.4,1.3-0.8,2-1.2c0.6-0.3,1.2-0.6,1.9-0.8c0.2-0.1,0.5-0.2,0.7-0.3C13.6,1,13.9,1,14.1,0.9c0.2-0.1,0.5-0.1,0.7-0.2
		c0.2-0.1,0.4-0.1,0.6-0.2c0.2,0,0.4-0.1,0.5-0.1c0.3-0.1,0.6-0.1,0.8-0.2c0.3-0.1,0.6-0.1,1-0.1c0.1,0,0.2,0,0.3,0h0.1
		c0.3,0,0.5,0,0.8-0.1c0.3,0,0.7,0,1,0h88C119,0,128,8.9,128,20z"/>
	<linearGradient id="SVGID_2_" gradientUnits="userSpaceOnUse" x1="150.0694" y1="4.1864" x2="47.938" y2="85.2959">
		<stop  offset="4.528621e-07" style="stop-color:#5C5C5C"/>
		<stop  offset="1" style="stop-color:#000000"/>
	</linearGradient>
	<path class="st1" d="M128,27.4V108c0,11-9,20-20,20H20c-11,0-20-9-20-20V27.4H128z"/>
	<g>
		<g>
			<defs>
				<path id="SVGID_3_" d="M25.1,119.5c-9.4,0-17.1-7.7-17.1-17.1V57.5h111v44.9c0,9.4-7.7,17.1-17.1,17.1H25.1z"/>
			</defs>
			<linearGradient id="SVGID_4_" gradientUnits="userSpaceOnUse" x1="121.3221" y1="51.2922" x2="12.7965" y2="114.3579">
				<stop  offset="4.528621e-07" style="stop-color:#FFF32E"/>
				<stop  offset="0.4339" style="stop-color:#ED1C24"/>
				<stop  offset="0.6844" style="stop-color:#7D2A90"/>
				<stop  offset="1" style="stop-color:#008AFF"/>
			</linearGradient>
			<use xlink:href="#SVGID_3_"  style="overflow:visible;fill:url(#SVGID_4_);"/>
			<clipPath id="SVGID_5_">
				<use xlink:href="#SVGID_3_"  style="overflow:visible;"/>
			</clipPath>
		</g>
	</g>
	<path class="st2" d="M128,20v1.1h-13L105,0h3C119,0,128,8.9,128,20z"/>
	<polygon class="st2" points="95.5,21.1 76,21.1 65.9,0 85.4,0 	"/>
	<polygon class="st2" points="56.4,21.1 36.9,21.1 26.9,0.1 26.8,0 46.4,0 46.4,0.1 	"/>
	<path class="st2" d="M17.4,21.1H0V20c0-0.3,0-0.7,0-1c0-0.3,0-0.6,0.1-0.9c0-0.1,0-0.2,0-0.3c0-0.3,0.1-0.5,0.1-0.8
		c0,0,0-0.1,0-0.1c0-0.3,0.1-0.6,0.2-0.8c0.1-0.3,0.1-0.5,0.2-0.8c0.1-0.4,0.2-0.8,0.3-1.2c0.1-0.3,0.2-0.5,0.3-0.8
		c0.1-0.2,0.1-0.4,0.2-0.6c0.1-0.2,0.1-0.4,0.2-0.6c0.1-0.2,0.2-0.4,0.3-0.6C2,11.3,2.1,11.1,2.2,11c0.2-0.5,0.5-1,0.8-1.4
		C3,9.4,3.1,9.3,3.2,9.2c0.2-0.3,0.4-0.5,0.5-0.8C4,8,4.2,7.7,4.5,7.4C4.7,7.1,5,6.8,5.2,6.5l0,0c0.3-0.3,0.5-0.6,0.8-0.9
		C6.4,5.4,6.7,5.1,7,4.8c0.3-0.3,0.6-0.5,0.9-0.8C8,4,8,4,8.1,3.9c0,0,0.1,0,0.1-0.1c0.2-0.1,0.4-0.3,0.6-0.4c0,0,0,0,0.1-0.1
		L17.4,21.1z"/>
	<g>
		<g>
			<polygon class="st2" points="128,27.4 128,42.7 124.7,49.7 105.2,49.7 115.8,27.4 			"/>
			<polygon class="st2" points="96.3,27.4 85.6,49.7 66.1,49.7 76.7,27.4 			"/>
			<polygon class="st2" points="57.2,27.4 46.6,49.7 27,49.7 37.7,27.4 			"/>
			<polygon class="st2" points="18.1,27.4 8.2,48.2 7.5,49.7 0,49.7 0,27.4 			"/>
		</g>
	</g>
	<rect x="8.2" y="0.1" class="st3" width="49.6" height="21"/>
	<rect x="8.2" y="27.4" class="st3" width="49.6" height="22.3"/>
	<polyline class="st3" points="138.1,49.7 124.7,49.7 105.2,49.7 85.6,49.7 66.1,49.7 46.6,49.7 27,49.7 7.5,49.7 -12,49.7 
		-17.3,49.7 	"/>
	<path class="st3" d="M128,20v1.1H0V20c0-0.3,0-0.7,0-1c0-0.3,0-0.6,0.1-0.9c0-0.1,0-0.2,0-0.3c0-0.3,0.1-0.5,0.1-0.8
		c0,0,0-0.1,0-0.1c0-0.3,0.1-0.6,0.2-0.8c0.1-0.3,0.1-0.5,0.2-0.8c0.1-0.4,0.2-0.8,0.3-1.2c0.1-0.3,0.2-0.5,0.3-0.8
		c0.1-0.2,0.1-0.4,0.2-0.6c0.1-0.2,0.1-0.4,0.2-0.6c0.1-0.2,0.2-0.4,0.3-0.6C2,11.3,2.1,11.1,2.2,11c0.2-0.5,0.5-1,0.8-1.4
		C3,9.4,3.1,9.3,3.2,9.2c0.2-0.3,0.4-0.5,0.5-0.8C4,8,4.2,7.7,4.5,7.4C4.7,7.1,5,6.8,5.2,6.5l0,0c0.3-0.3,0.5-0.6,0.8-0.9
		C6.4,5.4,6.7,5.1,7,4.8c0.3-0.3,0.6-0.5,0.9-0.8C8,4,8,4,8.1,3.9c0,0,0.1,0,0.1-0.1c0.2-0.1,0.4-0.3,0.6-0.4c0,0,0,0,0.1-0.1
		c0.6-0.4,1.3-0.8,2-1.2c0.6-0.3,1.2-0.6,1.9-0.8c0.2-0.1,0.5-0.2,0.7-0.3C13.6,1,13.9,1,14.1,0.9c0.2-0.1,0.5-0.1,0.7-0.2
		c0.2-0.1,0.4-0.1,0.6-0.2c0.2,0,0.4-0.1,0.5-0.1c0.3-0.1,0.6-0.1,0.8-0.2c0.3-0.1,0.6-0.1,1-0.1c0.1,0,0.2,0,0.3,0h0.1
		c0.3,0,0.5,0,0.8-0.1c0.3,0,0.7,0,1,0h88C119,0,128,8.9,128,20z"/>
	<path class="st3" d="M128,27.4V108c0,11-9,20-20,20H20c-11,0-20-9-20-20V27.4H128z"/>
	<g>
		<path class="st3" d="M19.6,116.7c-4.8,0-8.7-3.9-8.7-8.7V60.3h105.3V108c0,4.8-3.9,8.7-8.7,8.7H19.6z"/>
	</g>
	<polyline class="st3" points="0,0 0,20 0,21.1 	"/>
	<polyline class="st3" points="128,69.3 128,42.7 128,27.4 128,25.2 128,23.8 128,21.1 128,20 128,0 	"/>
	<line class="st3" x1="10.7" y1="31" x2="3.2" y2="31"/>
	<polyline class="st3" points="138.6,27.4 128,27.4 115.8,27.4 96.3,27.4 76.7,27.4 57.8,27.4 57.2,27.4 37.7,27.4 18.1,27.4 
		8.2,27.4 0,27.4 -6.8,27.4 	"/>
	<g>
		<linearGradient id="SVGID_6_" gradientUnits="userSpaceOnUse" x1="92.4174" y1="22.1045" x2="115.02" y2="22.1045">
			<stop  offset="4.528621e-07" style="stop-color:#5C5C5C"/>
			<stop  offset="1" style="stop-color:#000000"/>
		</linearGradient>
		<polygon class="st4" points="115,21.1 95.5,21.1 92.4,23.1 111.2,23.1 		"/>
		<linearGradient id="SVGID_7_" gradientUnits="userSpaceOnUse" x1="54.9307" y1="22.1045" x2="75.96" y2="22.1045">
			<stop  offset="4.528621e-07" style="stop-color:#5C5C5C"/>
			<stop  offset="1" style="stop-color:#000000"/>
		</linearGradient>
		<polygon class="st5" points="76,21.1 56.4,21.1 54.9,23.1 73.7,23.1 		"/>
		<linearGradient id="SVGID_8_" gradientUnits="userSpaceOnUse" x1="17.36" y1="22.1045" x2="36.89" y2="22.1045">
			<stop  offset="4.528621e-07" style="stop-color:#5C5C5C"/>
			<stop  offset="1" style="stop-color:#000000"/>
		</linearGradient>
		<polygon class="st6" points="36.9,21.1 17.4,21.1 17.4,23.1 36.2,23.1 		"/>
		<path class="st7" d="M127.3,21.7l0.7-0.6h-13l-3.9,2h14.1C125.9,22.6,126.6,22.2,127.3,21.7z"/>
		<polygon class="st7" points="95.5,21.1 76,21.1 73.7,23.1 92.4,23.1 		"/>
		<polygon class="st7" points="56.4,21.1 36.9,21.1 36.2,23.1 54.9,23.1 		"/>
		<path class="st7" d="M17.4,21.1H0l0.7,0.6C1,21.9,1.2,22,1.5,22.2c0.2,0.2,0.4,0.3,0.6,0.4c0.1,0,0.1,0.1,0.2,0.1
			c0.1,0.1,0.3,0.2,0.5,0.3h14.7L17.4,21.1z"/>
	</g>
	<polygon class="st8" points="119.1,58.9 8.2,58.9 8.1,57.5 119.1,57.5 	"/>
</g>
<g id="Layer_2">
</g>
<g id="Layer_3">
</g>
<g id="Layer_4">
</g>
</svg>
