<?xml version="1.0" encoding="utf-8"?>
<!-- Generator: Adobe Illustrator 25.0.1, SVG Export Plug-In . SVG Version: 6.00 Build 0)  -->
<svg version="1.1" id="Layer_1" xmlns="http://www.w3.org/2000/svg" xmlns:xlink="http://www.w3.org/1999/xlink" x="0px" y="0px"
	 viewBox="0 0 128 124.8" style="enable-background:new 0 0 128 124.8;" xml:space="preserve">
<style type="text/css">
	.st0{fill:#470137;}
	.st1{fill:#FF61F6;}
</style>
<g id="Layer_2_2_">
	<g id="Surfaces">
		<g id="UI_UX_Surface">
			<g id="Outline_no_shadow">
				<g id="Group_175492">
					<path id="Path_104683" class="st0" d="M27.5,0h72.9C115.7,0,128,12.3,128,27.5v69.7c0,15.2-12.3,27.5-27.5,27.5H27.5
						C12.3,124.8,0,112.5,0,97.3c0,0,0,0,0,0V27.5C0,12.3,12.3,0,27.5,0z"/>
				</g>
			</g>
		</g>
	</g>
	<g id="Outlined_Mnemonics_Logos" transform="translate(6.57 9.632)">
		<g id="Xd">
			<g id="Group_175493" transform="translate(0 1.632)">
				<path id="Path_104674" class="st1" d="M60.7,21.6l-16,26.4l17.1,28c0.1,0.2,0.1,0.4,0.1,0.6c-0.1,0.2-0.3,0.1-0.6,0.1H49.1
					c-0.9,0-1.5,0-1.8-0.6c-1.1-2.2-2.3-4.5-3.4-6.7s-2.4-4.5-3.7-6.7c-1.3-2.3-2.6-4.6-3.8-7h-0.1c-1.1,2.3-2.3,4.6-3.6,6.9
					s-2.4,4.6-3.7,6.8c-1.2,2.3-2.4,4.5-3.7,6.7c-0.2,0.5-0.6,0.6-1.2,0.6H12.5c-0.2,0-0.4,0.1-0.4-0.1c0-0.2,0-0.4,0.1-0.6
					l16.6-27.2L12.6,21.5c-0.2-0.2-0.2-0.4-0.1-0.6c0.1-0.1,0.3-0.2,0.5-0.2h12.1c0.3,0,0.5,0,0.8,0.1c0.2,0.1,0.4,0.3,0.5,0.5
					c1,2.3,2.2,4.6,3.4,6.9c1.3,2.3,2.5,4.6,3.8,6.8c1.3,2.2,2.5,4.5,3.6,6.8h0.1c1.1-2.3,2.3-4.6,3.5-6.9c1.2-2.2,2.4-4.5,3.6-6.7
					c1.2-2.3,2.4-4.5,3.6-6.7c0.1-0.2,0.2-0.4,0.3-0.6c0.2-0.1,0.5-0.2,0.7-0.1h11.2c0.3-0.1,0.5,0.1,0.6,0.4c0,0,0,0,0,0
					C60.9,21.2,60.9,21.4,60.7,21.6L60.7,21.6z"/>
			</g>
			<g id="Group_175494" transform="translate(17.94)">
				<path id="Path_104675" class="st1" d="M67.4,79.4c-4,0.1-7.9-0.8-11.5-2.4c-3.4-1.6-6.2-4.1-8-7.3c-2.1-3.7-3.1-7.9-2.9-12.1
					c0-3.9,1-7.8,2.9-11.2c2-3.5,5-6.3,8.5-8.2c4.2-2.2,8.8-3.2,13.5-3.1c0.3,0,0.7,0,1.1,0s1,0.1,1.6,0.1V18.3
					c0-0.4,0.2-0.6,0.5-0.6H84c0.2,0,0.5,0.1,0.5,0.4c0,0,0,0,0,0c0,0,0,0.1,0,0.1V69c0,1,0,2,0.1,3.2c0.1,1.1,0.2,2.2,0.2,3.1
					c0,0.4-0.2,0.7-0.5,0.9c-2.8,1.2-5.7,2-8.7,2.6C72.9,79.2,70.2,79.4,67.4,79.4z M72.7,68.8V45.3c-0.5-0.1-0.9-0.2-1.4-0.3
					C70.7,45,70.1,45,69.5,45c-2.1,0-4.1,0.5-6,1.4c-1.8,0.9-3.4,2.3-4.5,4c-1.3,2-1.9,4.4-1.8,6.8c0,1.9,0.3,3.7,0.9,5.5
					c0.5,1.4,1.3,2.7,2.4,3.8c1,1,2.3,1.7,3.6,2.1c1.4,0.5,2.9,0.7,4.4,0.7c0.8,0,1.5,0,2.2-0.1C71.4,69.1,72,69,72.7,68.8
					L72.7,68.8z"/>
			</g>
		</g>
	</g>
</g>
</svg>
