<!--?xml version="1.0" standalone="no"?-->
              <svg id="sw-js-blob-svg" viewBox="0 0 100 100" xmlns="http://www.w3.org/2000/svg" version="1.1">
                    <defs> 
                        <linearGradient id="sw-gradient" x1="0" x2="1" y1="1" y2="0">
                            <stop id="stop1" stop-color="rgba(222.058, 183.115, 185.379, 1)" offset="0%"></stop>
                            <stop id="stop2" stop-color="rgba(255, 255, 255, 1)" offset="100%"></stop>
                        </linearGradient>
                    </defs>
                <path fill="url(#sw-gradient)" d="M28.2,-30.3C36.3,-26.7,42.5,-17.7,43,-8.5C43.6,0.7,38.4,10,32.6,17.6C26.7,25.2,20.1,31.1,12.2,34.3C4.3,37.4,-4.8,37.9,-11.3,34.2C-17.8,30.4,-21.6,22.6,-24.9,15.2C-28.2,7.8,-31,0.9,-31.3,-6.9C-31.5,-14.7,-29.2,-23.3,-23.6,-27.3C-17.9,-31.3,-9,-30.5,0.5,-31.1C10,-31.8,20,-33.8,28.2,-30.3Z" width="100%" height="100%" transform="translate(50 50)" stroke-width="0" style="transition: all 0.3s ease 0s;"></path>
              </svg>