<?xml version="1.0" standalone="no"?>
<svg xmlns:xlink="http://www.w3.org/1999/xlink" id="wave" style="transform:rotate(180deg); transition: 0.3s" viewBox="0 0 1440 490" version="1.1" xmlns="http://www.w3.org/2000/svg"><defs><linearGradient id="sw-gradient-0" x1="0" x2="0" y1="1" y2="0"><stop stop-color="rgba(87.43, 10.276, 157.418, 1)" offset="0%"/><stop stop-color="rgba(36.749, 33.417, 26.051, 1)" offset="100%"/></linearGradient></defs><path style="transform:translate(0, 0px); opacity:1" fill="url(#sw-gradient-0)" d="M0,0L160,343L320,98L480,0L640,294L800,343L960,294L1120,441L1280,245L1440,98L1600,98L1760,147L1920,392L2080,441L2240,245L2400,98L2560,441L2720,49L2880,196L3040,245L3200,294L3360,294L3520,441L3680,0L3840,294L3840,490L3680,490L3520,490L3360,490L3200,490L3040,490L2880,490L2720,490L2560,490L2400,490L2240,490L2080,490L1920,490L1760,490L1600,490L1440,490L1280,490L1120,490L960,490L800,490L640,490L480,490L320,490L160,490L0,490Z"/><defs><linearGradient id="sw-gradient-1" x1="0" x2="0" y1="1" y2="0"><stop stop-color="rgba(200.677, 200.677, 200.677, 1)" offset="0%"/><stop stop-color="rgba(91.392, 0, 85.329, 1)" offset="100%"/></linearGradient></defs><path style="transform:translate(0, 50px); opacity:0.9" fill="url(#sw-gradient-1)" d="M0,147L160,245L320,49L480,147L640,441L800,0L960,98L1120,245L1280,49L1440,392L1600,245L1760,49L1920,245L2080,392L2240,392L2400,147L2560,147L2720,0L2880,343L3040,98L3200,0L3360,147L3520,49L3680,392L3840,49L3840,490L3680,490L3520,490L3360,490L3200,490L3040,490L2880,490L2720,490L2560,490L2400,490L2240,490L2080,490L1920,490L1760,490L1600,490L1440,490L1280,490L1120,490L960,490L800,490L640,490L480,490L320,490L160,490L0,490Z"/><defs><linearGradient id="sw-gradient-2" x1="0" x2="0" y1="1" y2="0"><stop stop-color="rgba(55.958, 0, 132.374, 1)" offset="0%"/><stop stop-color="rgba(23.763, 3.133, 84.561, 1)" offset="100%"/></linearGradient></defs><path style="transform:translate(0, 100px); opacity:0.8" fill="url(#sw-gradient-2)" d="M0,245L160,294L320,343L480,392L640,441L800,147L960,147L1120,49L1280,147L1440,196L1600,294L1760,343L1920,392L2080,98L2240,196L2400,392L2560,441L2720,441L2880,49L3040,0L3200,343L3360,98L3520,196L3680,343L3840,0L3840,490L3680,490L3520,490L3360,490L3200,490L3040,490L2880,490L2720,490L2560,490L2400,490L2240,490L2080,490L1920,490L1760,490L1600,490L1440,490L1280,490L1120,490L960,490L800,490L640,490L480,490L320,490L160,490L0,490Z"/></svg>