<?xml version="1.0" standalone="no"?>
<svg xmlns:xlink="http://www.w3.org/1999/xlink" id="wave" style="transform:rotate(180deg); transition: 0.3s" viewBox="0 0 1440 220" version="1.1" xmlns="http://www.w3.org/2000/svg"><defs><linearGradient id="sw-gradient-0" x1="0" x2="0" y1="1" y2="0"><stop stop-color="rgba(109.517, 64.242, 150.588, 1)" offset="0%"/><stop stop-color="rgba(36.749, 33.417, 26.051, 1)" offset="100%"/></linearGradient></defs><path style="transform:translate(0, 0px); opacity:1" fill="url(#sw-gradient-0)" d="M0,110L120,106.3C240,103,480,95,720,77C960,59,1200,29,1440,22C1680,15,1920,29,2160,55C2400,81,2640,117,2880,124.7C3120,132,3360,110,3600,95.3C3840,81,4080,73,4320,62.3C4560,51,4800,37,5040,55C5280,73,5520,125,5760,154C6000,183,6240,191,6480,165C6720,139,6960,81,7200,77C7440,73,7680,125,7920,143C8160,161,8400,147,8640,124.7C8880,103,9120,73,9360,80.7C9600,88,9840,132,10080,135.7C10320,139,10560,103,10800,84.3C11040,66,11280,66,11520,73.3C11760,81,12000,95,12240,95.3C12480,95,12720,81,12960,62.3C13200,44,13440,22,13680,25.7C13920,29,14160,59,14400,88C14640,117,14880,147,15120,132C15360,117,15600,59,15840,47.7C16080,37,16320,73,16560,99C16800,125,17040,139,17160,146.7L17280,154L17280,220L17160,220C17040,220,16800,220,16560,220C16320,220,16080,220,15840,220C15600,220,15360,220,15120,220C14880,220,14640,220,14400,220C14160,220,13920,220,13680,220C13440,220,13200,220,12960,220C12720,220,12480,220,12240,220C12000,220,11760,220,11520,220C11280,220,11040,220,10800,220C10560,220,10320,220,10080,220C9840,220,9600,220,9360,220C9120,220,8880,220,8640,220C8400,220,8160,220,7920,220C7680,220,7440,220,7200,220C6960,220,6720,220,6480,220C6240,220,6000,220,5760,220C5520,220,5280,220,5040,220C4800,220,4560,220,4320,220C4080,220,3840,220,3600,220C3360,220,3120,220,2880,220C2640,220,2400,220,2160,220C1920,220,1680,220,1440,220C1200,220,960,220,720,220C480,220,240,220,120,220L0,220Z"/><defs><linearGradient id="sw-gradient-1" x1="0" x2="0" y1="1" y2="0"><stop stop-color="rgba(200.677, 200.677, 200.677, 1)" offset="0%"/><stop stop-color="rgba(91.392, 0, 85.329, 1)" offset="100%"/></linearGradient></defs><path style="transform:translate(0, 50px); opacity:0.9" fill="url(#sw-gradient-1)" d="M0,0L120,29.3C240,59,480,117,720,128.3C960,139,1200,103,1440,84.3C1680,66,1920,66,2160,69.7C2400,73,2640,81,2880,80.7C3120,81,3360,73,3600,69.7C3840,66,4080,66,4320,84.3C4560,103,4800,139,5040,146.7C5280,154,5520,132,5760,135.7C6000,139,6240,169,6480,150.3C6720,132,6960,66,7200,36.7C7440,7,7680,15,7920,40.3C8160,66,8400,110,8640,121C8880,132,9120,110,9360,88C9600,66,9840,44,10080,55C10320,66,10560,110,10800,135.7C11040,161,11280,169,11520,172.3C11760,176,12000,176,12240,154C12480,132,12720,88,12960,62.3C13200,37,13440,29,13680,44C13920,59,14160,95,14400,99C14640,103,14880,73,15120,62.3C15360,51,15600,59,15840,51.3C16080,44,16320,22,16560,33C16800,44,17040,88,17160,110L17280,132L17280,220L17160,220C17040,220,16800,220,16560,220C16320,220,16080,220,15840,220C15600,220,15360,220,15120,220C14880,220,14640,220,14400,220C14160,220,13920,220,13680,220C13440,220,13200,220,12960,220C12720,220,12480,220,12240,220C12000,220,11760,220,11520,220C11280,220,11040,220,10800,220C10560,220,10320,220,10080,220C9840,220,9600,220,9360,220C9120,220,8880,220,8640,220C8400,220,8160,220,7920,220C7680,220,7440,220,7200,220C6960,220,6720,220,6480,220C6240,220,6000,220,5760,220C5520,220,5280,220,5040,220C4800,220,4560,220,4320,220C4080,220,3840,220,3600,220C3360,220,3120,220,2880,220C2640,220,2400,220,2160,220C1920,220,1680,220,1440,220C1200,220,960,220,720,220C480,220,240,220,120,220L0,220Z"/><defs><linearGradient id="sw-gradient-2" x1="0" x2="0" y1="1" y2="0"><stop stop-color="rgba(55.958, 0, 132.374, 1)" offset="0%"/><stop stop-color="rgba(0, 0, 0, 1)" offset="100%"/></linearGradient></defs><path style="transform:translate(0, 100px); opacity:0.8" fill="url(#sw-gradient-2)" d="M0,0L120,22C240,44,480,88,720,106.3C960,125,1200,117,1440,124.7C1680,132,1920,154,2160,135.7C2400,117,2640,59,2880,33C3120,7,3360,15,3600,25.7C3840,37,4080,51,4320,73.3C4560,95,4800,125,5040,113.7C5280,103,5520,51,5760,33C6000,15,6240,29,6480,29.3C6720,29,6960,15,7200,14.7C7440,15,7680,29,7920,55C8160,81,8400,117,8640,135.7C8880,154,9120,154,9360,128.3C9600,103,9840,51,10080,58.7C10320,66,10560,132,10800,161.3C11040,191,11280,183,11520,161.3C11760,139,12000,103,12240,80.7C12480,59,12720,51,12960,66C13200,81,13440,117,13680,143C13920,169,14160,183,14400,172.3C14640,161,14880,125,15120,113.7C15360,103,15600,117,15840,132C16080,147,16320,161,16560,146.7C16800,132,17040,88,17160,66L17280,44L17280,220L17160,220C17040,220,16800,220,16560,220C16320,220,16080,220,15840,220C15600,220,15360,220,15120,220C14880,220,14640,220,14400,220C14160,220,13920,220,13680,220C13440,220,13200,220,12960,220C12720,220,12480,220,12240,220C12000,220,11760,220,11520,220C11280,220,11040,220,10800,220C10560,220,10320,220,10080,220C9840,220,9600,220,9360,220C9120,220,8880,220,8640,220C8400,220,8160,220,7920,220C7680,220,7440,220,7200,220C6960,220,6720,220,6480,220C6240,220,6000,220,5760,220C5520,220,5280,220,5040,220C4800,220,4560,220,4320,220C4080,220,3840,220,3600,220C3360,220,3120,220,2880,220C2640,220,2400,220,2160,220C1920,220,1680,220,1440,220C1200,220,960,220,720,220C480,220,240,220,120,220L0,220Z"/></svg>