<?xml version="1.0" standalone="no"?>
<svg xmlns:xlink="http://www.w3.org/1999/xlink" id="wave" style="transform:rotate(0deg); transition: 0.3s" viewBox="0 0 1440 490" version="1.1" xmlns="http://www.w3.org/2000/svg"><defs><linearGradient id="sw-gradient-0" x1="0" x2="0" y1="1" y2="0"><stop stop-color="rgba(87.43, 10.276, 157.418, 1)" offset="0%"/><stop stop-color="rgba(36.749, 33.417, 26.051, 1)" offset="100%"/></linearGradient></defs><path style="transform:translate(0, 0px); opacity:1" fill="url(#sw-gradient-0)" d="M0,0L26.7,57.2C53.3,114,107,229,160,245C213.3,261,267,180,320,122.5C373.3,65,427,33,480,65.3C533.3,98,587,196,640,253.2C693.3,310,747,327,800,326.7C853.3,327,907,310,960,326.7C1013.3,343,1067,392,1120,383.8C1173.3,376,1227,310,1280,253.2C1333.3,196,1387,147,1440,122.5C1493.3,98,1547,98,1600,106.2C1653.3,114,1707,131,1760,179.7C1813.3,229,1867,310,1920,359.3C1973.3,408,2027,425,2080,400.2C2133.3,376,2187,310,2240,253.2C2293.3,196,2347,147,2400,179.7C2453.3,212,2507,327,2560,318.5C2613.3,310,2667,180,2720,138.8C2773.3,98,2827,147,2880,179.7C2933.3,212,2987,229,3040,245C3093.3,261,3147,278,3200,285.8C3253.3,294,3307,294,3360,318.5C3413.3,343,3467,392,3520,343C3573.3,294,3627,147,3680,122.5C3733.3,98,3787,196,3813,245L3840,294L3840,490L3813.3,490C3786.7,490,3733,490,3680,490C3626.7,490,3573,490,3520,490C3466.7,490,3413,490,3360,490C3306.7,490,3253,490,3200,490C3146.7,490,3093,490,3040,490C2986.7,490,2933,490,2880,490C2826.7,490,2773,490,2720,490C2666.7,490,2613,490,2560,490C2506.7,490,2453,490,2400,490C2346.7,490,2293,490,2240,490C2186.7,490,2133,490,2080,490C2026.7,490,1973,490,1920,490C1866.7,490,1813,490,1760,490C1706.7,490,1653,490,1600,490C1546.7,490,1493,490,1440,490C1386.7,490,1333,490,1280,490C1226.7,490,1173,490,1120,490C1066.7,490,1013,490,960,490C906.7,490,853,490,800,490C746.7,490,693,490,640,490C586.7,490,533,490,480,490C426.7,490,373,490,320,490C266.7,490,213,490,160,490C106.7,490,53,490,27,490L0,490Z"/><defs><linearGradient id="sw-gradient-1" x1="0" x2="0" y1="1" y2="0"><stop stop-color="rgba(200.677, 200.677, 200.677, 1)" offset="0%"/><stop stop-color="rgba(91.392, 0, 85.329, 1)" offset="100%"/></linearGradient></defs><path style="transform:translate(0, 50px); opacity:0.9" fill="url(#sw-gradient-1)" d="M0,147L26.7,163.3C53.3,180,107,212,160,196C213.3,180,267,114,320,98C373.3,82,427,114,480,179.7C533.3,245,587,343,640,318.5C693.3,294,747,147,800,89.8C853.3,33,907,65,960,106.2C1013.3,147,1067,196,1120,187.8C1173.3,180,1227,114,1280,138.8C1333.3,163,1387,278,1440,310.3C1493.3,343,1547,294,1600,236.8C1653.3,180,1707,114,1760,114.3C1813.3,114,1867,180,1920,236.8C1973.3,294,2027,343,2080,367.5C2133.3,392,2187,392,2240,351.2C2293.3,310,2347,229,2400,187.8C2453.3,147,2507,147,2560,122.5C2613.3,98,2667,49,2720,81.7C2773.3,114,2827,229,2880,245C2933.3,261,2987,180,3040,122.5C3093.3,65,3147,33,3200,40.8C3253.3,49,3307,98,3360,106.2C3413.3,114,3467,82,3520,122.5C3573.3,163,3627,278,3680,277.7C3733.3,278,3787,163,3813,106.2L3840,49L3840,490L3813.3,490C3786.7,490,3733,490,3680,490C3626.7,490,3573,490,3520,490C3466.7,490,3413,490,3360,490C3306.7,490,3253,490,3200,490C3146.7,490,3093,490,3040,490C2986.7,490,2933,490,2880,490C2826.7,490,2773,490,2720,490C2666.7,490,2613,490,2560,490C2506.7,490,2453,490,2400,490C2346.7,490,2293,490,2240,490C2186.7,490,2133,490,2080,490C2026.7,490,1973,490,1920,490C1866.7,490,1813,490,1760,490C1706.7,490,1653,490,1600,490C1546.7,490,1493,490,1440,490C1386.7,490,1333,490,1280,490C1226.7,490,1173,490,1120,490C1066.7,490,1013,490,960,490C906.7,490,853,490,800,490C746.7,490,693,490,640,490C586.7,490,533,490,480,490C426.7,490,373,490,320,490C266.7,490,213,490,160,490C106.7,490,53,490,27,490L0,490Z"/><defs><linearGradient id="sw-gradient-2" x1="0" x2="0" y1="1" y2="0"><stop stop-color="rgba(55.958, 0, 132.374, 1)" offset="0%"/><stop stop-color="rgba(23.763, 3.133, 84.561, 1)" offset="100%"/></linearGradient></defs><path style="transform:translate(0, 100px); opacity:0.8" fill="url(#sw-gradient-2)" d="M0,245L26.7,253.2C53.3,261,107,278,160,294C213.3,310,267,327,320,343C373.3,359,427,376,480,392C533.3,408,587,425,640,383.8C693.3,343,747,245,800,196C853.3,147,907,147,960,130.7C1013.3,114,1067,82,1120,81.7C1173.3,82,1227,114,1280,138.8C1333.3,163,1387,180,1440,204.2C1493.3,229,1547,261,1600,285.8C1653.3,310,1707,327,1760,343C1813.3,359,1867,376,1920,334.8C1973.3,294,2027,196,2080,163.3C2133.3,131,2187,163,2240,212.3C2293.3,261,2347,327,2400,367.5C2453.3,408,2507,425,2560,432.8C2613.3,441,2667,441,2720,375.7C2773.3,310,2827,180,2880,106.2C2933.3,33,2987,16,3040,65.3C3093.3,114,3147,229,3200,245C3253.3,261,3307,180,3360,155.2C3413.3,131,3467,163,3520,204.2C3573.3,245,3627,294,3680,261.3C3733.3,229,3787,114,3813,57.2L3840,0L3840,490L3813.3,490C3786.7,490,3733,490,3680,490C3626.7,490,3573,490,3520,490C3466.7,490,3413,490,3360,490C3306.7,490,3253,490,3200,490C3146.7,490,3093,490,3040,490C2986.7,490,2933,490,2880,490C2826.7,490,2773,490,2720,490C2666.7,490,2613,490,2560,490C2506.7,490,2453,490,2400,490C2346.7,490,2293,490,2240,490C2186.7,490,2133,490,2080,490C2026.7,490,1973,490,1920,490C1866.7,490,1813,490,1760,490C1706.7,490,1653,490,1600,490C1546.7,490,1493,490,1440,490C1386.7,490,1333,490,1280,490C1226.7,490,1173,490,1120,490C1066.7,490,1013,490,960,490C906.7,490,853,490,800,490C746.7,490,693,490,640,490C586.7,490,533,490,480,490C426.7,490,373,490,320,490C266.7,490,213,490,160,490C106.7,490,53,490,27,490L0,490Z"/></svg>